<?xml version="1.0" standalone="no"?>
<!DOCTYPE svg PUBLIC "-//W3C//DTD SVG 1.1//EN" "http://www.w3.org/Graphics/SVG/1.1/DTD/svg11.dtd" >
<svg xmlns="http://www.w3.org/2000/svg" xmlns:xlink="http://www.w3.org/1999/xlink" version="1.1">
<metadata></metadata>
<defs>
<font id="croissant_oneregular" horiz-adv-x="1146" >
<font-face units-per-em="2048" ascent="1638" descent="-410" />
<missing-glyph horiz-adv-x="614" />
<glyph unicode="&#xfb01;" horiz-adv-x="1685" d="M80 911v84h168v207q0 162 92 263.5t297 101.5q100 0 191.5 -37t150.5 -98l-55 -64q-88 76 -197 76q-172 0 -172 -225v-224h170q184 0 336.5 30t200.5 30q193 0 192 -166v-662q0 -55 26.5 -86.5t82 -31.5t127.5 59l36 -49q-164 -150 -327 -150q-252 0 -252 301v686 q-180 -45 -422 -45h-170v-1181h-307v1181h-168zM1137 1372.5q0 67.5 48 115.5t115.5 48t115.5 -48t48 -115.5t-48 -116t-115.5 -48.5t-115.5 48.5t-48 116z" />
<glyph unicode="&#xfb02;" horiz-adv-x="1634" d="M80 911v84h168v207q0 162 92 263.5t297 101.5q162 0 287 -88q125 88 286 88q78 0 135.5 -36t57.5 -89v-1215q0 -55 26.5 -86.5t82 -31.5t126.5 59l37 -49q-164 -150 -327 -150q-252 0 -252 301v1198q-102 -27 -172 -100q-88 76 -197 76q-172 0 -172 -225v-224h231v-84 h-231v-1181h-307v1181h-168z" />
<glyph horiz-adv-x="0" />
<glyph unicode="&#xd;" horiz-adv-x="681" />
<glyph unicode=" "  horiz-adv-x="614" />
<glyph unicode="&#x09;" horiz-adv-x="614" />
<glyph unicode="&#xa0;" horiz-adv-x="614" />
<glyph unicode="!" horiz-adv-x="733" d="M205 1307.5q0 64.5 44 110.5t117.5 46t117.5 -46t44 -110.5t-17 -205.5t-46 -347t-43 -339h-111q-14 133 -42.5 339t-46 347t-17.5 205.5zM209 127q0 66 46 112t111.5 46t111.5 -46t46 -112t-46 -112t-111.5 -46t-111.5 46t-46 112z" />
<glyph unicode="&#x22;" horiz-adv-x="1048" d="M174 1441q0 44 39 85t106.5 41t106.5 -41t39 -85t-15.5 -117t-42 -181.5t-38.5 -169.5h-99q-12 61 -38.5 169.5t-42 181.5t-15.5 117zM584 1441q0 44 39 85t106.5 41t106 -41t38.5 -85t-15 -117t-41.5 -181.5t-39.5 -169.5h-98q-12 61 -39 169.5t-42 181.5t-15 117z" />
<glyph unicode="#" horiz-adv-x="1519" d="M102 451l39 122h267l90 287h-265l37 123h267l141 451h123l-142 -451h369l141 451h123l-141 -451h266l-39 -123h-266l-90 -287h266l-39 -122h-266l-141 -451h-123l141 451h-368l-142 -451h-123l142 451h-267zM530 573h369l90 287h-368z" />
<glyph unicode="$" horiz-adv-x="1331" d="M172 299q0 61 43 104t104.5 43t104.5 -44t43 -104t-40 -101t-97 -45q94 -78 284 -86v503l-153 82q-262 141 -262 404q0 156 103.5 271.5t311.5 133.5v178h62v-174q166 0 300 -76.5t134 -211.5q0 -61 -43 -104.5t-104.5 -43.5t-104.5 44t-43 98.5t28.5 93.5t76.5 53 q-98 51 -244 51v-502l186 -98q297 -156 297 -410q0 -186 -136 -284.5t-347 -104.5v-174h-62v176q-178 8 -310 94.5t-132 233.5zM451 1153q0 -172 163 -254v461q-82 -20 -122.5 -79.5t-40.5 -127.5zM676 66q111 8 174 66.5t63 150.5q0 125 -149 206l-88 48v-471z" />
<glyph unicode="%" horiz-adv-x="2138" d="M184 997.5q0 192.5 90.5 323.5t240 131t240.5 -131t91 -324.5t-91 -322.5t-240.5 -129t-240 130t-90.5 322.5zM385 997q0 -168 33 -272t97.5 -104t97 104t32.5 272t-32.5 273.5t-97 105.5t-97.5 -105.5t-33 -273.5zM629 0l798 1434h82l-798 -1434h-82zM1292 434.5 q0 192.5 90.5 323.5t240 131t240.5 -131t91 -324.5t-91 -322.5t-240.5 -129t-240 130t-90.5 322.5zM1493 434q0 -168 33 -272.5t97.5 -104.5t97 104.5t32.5 272.5t-32.5 273.5t-97 105.5t-97.5 -105.5t-33 -273.5z" />
<glyph unicode="&#x26;" horiz-adv-x="1304" d="M61 307.5q0 153.5 94.5 260t268.5 106.5h25q-145 291 -146 442q0 348 459 348q143 0 270 -65.5t127 -155.5q0 -35 -22 -80l-99 -188l-71 22v172q0 92 -62.5 145.5t-152.5 53.5t-138.5 -46t-48.5 -108q0 -84 86 -256q23 -45 38.5 -77.5t48 -97t55.5 -109.5h344v-92h-299 l186 -381q45 -92 119 -92t145 59l37 -49q-164 -150 -348 -150q-98 0 -166 49.5t-143 212.5q-31 -117 -113 -189.5t-207 -72.5t-206 92.5t-81 246zM344 354.5q0 -104.5 31 -172t96.5 -67.5t101 65.5t37.5 169.5l-114 232h-9q-72 0 -107.5 -61.5t-35.5 -166z" />
<glyph unicode="'" horiz-adv-x="638" d="M174 1441q0 44 39 85t106.5 41t106.5 -41t39 -85t-15.5 -117t-42 -181.5t-38.5 -169.5h-99q-12 61 -38.5 169.5t-42 181.5t-15.5 117z" />
<glyph unicode="(" horiz-adv-x="847" d="M123 718.5q0 403.5 188.5 609.5t503.5 206v-47q-193 -53 -294 -248t-101 -520.5t101.5 -520t293.5 -247.5v-47q-315 0 -503.5 205.5t-188.5 609z" />
<glyph unicode=")" horiz-adv-x="847" d="M33 -49q193 53 294 247.5t101 520t-101.5 520.5t-293.5 248v47q315 0 503.5 -206t188.5 -609.5t-188.5 -609t-503.5 -205.5v47z" />
<glyph unicode="*" horiz-adv-x="1181" d="M102 1170.5q0 68.5 45.5 105.5t100.5 37q41 0 80 -26.5t59.5 -42t63.5 -49.5t69 -54l17 10q-86 223 -86 273.5t37.5 96.5t103 46t103.5 -46t38 -106q0 -33 -40 -137t-48 -129l14 -10q29 20 71 53t64.5 50.5t51.5 35.5q53 35 98 35t90 -37t45 -105.5t-53 -105.5t-131 -37 l-201 6l-6 -16q29 -20 83 -56t75.5 -51.5t50.5 -42.5q49 -45 49 -101t-39 -99t-82 -43t-64.5 5t-40 23.5t-28.5 30.5t-24.5 49t-20.5 58q-18 61 -47 161h-18q-10 -33 -24.5 -84t-22 -74.5t-19.5 -58.5t-23.5 -49t-29.5 -31q-29 -31 -88.5 -30.5t-98 43.5t-38.5 84t9 65.5 t37.5 51t48 42t75 51t84.5 56.5l-7 18l-198 -6q-78 0 -131.5 36t-53.5 104.5z" />
<glyph unicode="+" d="M184 655v123h328v328h123v-328h328v-123h-328v-327h-123v327h-328z" />
<glyph unicode="," horiz-adv-x="561" d="M123 122q0 71 46 117t112.5 46t111.5 -51.5t45 -139.5q0 -229 -245 -440l-56 51q90 104 90 181t-52 121t-52 115z" />
<glyph unicode="-" horiz-adv-x="819" d="M102 516v123h615v-123h-615z" />
<glyph unicode="." horiz-adv-x="561" d="M123 127q0 66 46 112t111.5 46t111.5 -46t46 -112t-46 -112t-111.5 -46t-111.5 46t-46 112z" />
<glyph unicode="/" horiz-adv-x="839" d="M61 0l533 1434h184l-532 -1434h-185z" />
<glyph unicode="0" horiz-adv-x="1228" d="M74 715.5q0 316.5 149.5 532.5t391 216t391 -216t149.5 -533.5t-149.5 -531.5t-391 -214t-391 215t-149.5 531.5zM371 716q0 -290 62.5 -476.5t181 -186.5t181 186.5t62.5 476.5t-62.5 477t-181 187t-181 -187t-62.5 -477z" />
<glyph unicode="1" horiz-adv-x="966" d="M0 1102v82q188 0 351 69.5t259 180.5h90v-1352h267v-82h-881v82h307v1100q-190 -80 -393 -80z" />
<glyph unicode="2" horiz-adv-x="1228" d="M86 0v82l481 487q211 213 211 451q0 145 -83 241.5t-210 96.5q-92 0 -161 -29q47 -16 77.5 -58t30.5 -101.5t-49 -108.5t-116.5 -49t-115 48t-47.5 116q0 131 138.5 209.5t345.5 78.5t340 -109.5t133 -269.5q0 -123 -78 -229t-289 -307l-375 -361h340q131 0 190.5 37 t80.5 131l14 74h80l55 -344q0 -41 -18.5 -60.5t-40 -22.5t-66.5 -3h-868z" />
<glyph unicode="3" horiz-adv-x="1228" d="M115 258q0 68 48 116t115.5 48t115.5 -49t48 -109.5t-33.5 -104.5t-84.5 -59q55 -25 131 -24q166 0 253 93t87 217t-82 210t-238 86h-110v86h141q152 0 230.5 94t78.5 214t-76.5 201t-222.5 81q-92 0 -162 -29q47 -16 78 -58t31 -101.5t-48 -108.5t-116 -49t-116 48 t-48 116q0 133 142.5 210.5t351.5 77.5t336 -109.5t127 -269.5q0 -119 -76 -214t-209 -146q143 -47 224 -137t81 -199q0 -178 -150.5 -299t-392.5 -121q-182 0 -318 77t-136 212z" />
<glyph unicode="4" horiz-adv-x="1228" d="M35 326v102q199 186 268 494q55 248 64 512h348q0 -289 -167 -562.5t-384 -443.5h500v412q174 74 217 215h90v-627h123v-102h-123v-244h246v-82h-820v82h267v244h-629z" />
<glyph unicode="5" horiz-adv-x="1228" d="M125 258q0 68 48 116t115.5 48t116 -49t48.5 -109.5t-34 -104.5t-85 -59q55 -25 131 -24q166 0 253 99t87 235.5t-87 234.5t-234.5 98t-231.5 -57l-51 59l47 689h686q45 0 66.5 -3.5t40 -22.5t18.5 -60l-55 -344h-80l-19 94q-20 94 -79.5 131t-190.5 37h-279l-32 -457 q113 41 213 41q262 0 423.5 -127t161.5 -313.5t-150.5 -313.5t-391.5 -127q-182 0 -318.5 77t-136.5 212z" />
<glyph unicode="6" horiz-adv-x="1228" d="M121 694q0 348 157.5 559t411.5 211q178 0 282.5 -98t104.5 -211q0 -68 -48 -116t-115.5 -48t-115.5 49.5t-48 109.5t33.5 104t86.5 59q-70 70 -178 69q-285 0 -291 -649q88 137 277.5 137t315.5 -129t126 -317t-135 -321.5t-362 -133.5q-502 0 -502 725zM397 424 q0 -156 57.5 -263.5t165 -107.5t166 100.5t58.5 257t-55.5 256t-165 99.5t-168 -93t-58.5 -249z" />
<glyph unicode="7" horiz-adv-x="1060" d="M61 1348q0 41 18.5 60t40 22.5t66.5 3.5h848v-82q-432 -489 -432 -891q0 -90 30 -189.5t30 -152.5t-48.5 -101.5t-118 -48.5t-115.5 55.5t-46 135.5t19.5 177t65.5 235.5t145.5 306.5t236.5 317l63 70h-379q-131 0 -190 -37t-80 -131l-18 -94h-80z" />
<glyph unicode="8" horiz-adv-x="1228" d="M80 372.5q0 108.5 85 207t222 147.5q-119 51 -192.5 147.5t-73.5 218t76 210.5q137 162 417 161q180 0 328 -84q76 -41 121 -117.5t45 -184t-73.5 -204t-194.5 -147.5q139 -49 224 -146.5t85 -211.5q0 -197 -157.5 -298.5t-377.5 -101.5q-195 0 -356 88q-80 45 -129 126 t-49 189.5zM387 348q0 -125 62.5 -209t166 -84t165 84t61.5 209q0 233 -269 318q-186 -86 -186 -318zM397 1106q0 -264 258 -326q176 62 176 326q0 106 -57 189t-160.5 83t-160 -80.5t-56.5 -191.5z" />
<glyph unicode="9" horiz-adv-x="1228" d="M115 1001.5q0 196.5 135 329.5t362 133q260 0 381 -194.5t121 -536.5t-157.5 -553t-411.5 -211q-172 0 -290 84t-118 226q0 68 47 115.5t115 47.5t117 -49t49 -109.5t-32 -103.5t-83 -59q76 -70 193 -70q143 0 221 139.5t78 423.5q0 14 -1 53.5t-1 53.5 q-98 -158 -316 -158q-174 0 -291.5 121t-117.5 317.5zM391 1023q0 -157 55.5 -256t165 -99t168 93t58.5 248.5t-57.5 263t-165 107.5t-166 -100t-58.5 -257z" />
<glyph unicode=":" horiz-adv-x="561" d="M123 127q0 66 46 112t111.5 46t111.5 -46t46 -112t-46 -112t-111.5 -46t-111.5 46t-46 112zM123 864.5q0 65.5 46 111.5t111.5 46t111.5 -46t46 -111.5t-46 -111.5t-111.5 -46t-111.5 46t-46 111.5z" />
<glyph unicode=";" horiz-adv-x="561" d="M123 122q0 71 46 117t112.5 46t111.5 -51.5t45 -139.5q0 -229 -245 -440l-56 51q90 104 90 181t-52 121t-52 115zM123 864.5q0 65.5 46 111.5t111.5 46t111.5 -46t46 -111.5t-46 -111.5t-111.5 -46t-111.5 46t-46 111.5z" />
<glyph unicode="&#x3c;" d="M184 655v123l779 328v-123l-633 -266l633 -266v-123z" />
<glyph unicode="=" d="M184 451v122h779v-122h-779zM184 860v123h779v-123h-779z" />
<glyph unicode="&#x3e;" d="M184 328v123l633 266l-633 266v123l779 -328v-123z" />
<glyph unicode="?" horiz-adv-x="1079" d="M102 1176q0 137 130 212.5t315.5 75.5t307.5 -109.5t122 -267t-106.5 -275.5t-290.5 -159l-29 -237h-111l-34 299q159 28 226.5 127.5t67.5 220.5t-71.5 208t-206.5 87q-66 0 -117 -23q55 -14 90 -58t35 -105.5t-49 -110.5t-116.5 -49t-115 48t-47.5 116zM338 127 q0 66 46 112t111.5 46t111.5 -46t46 -112t-46 -112t-111.5 -46t-111.5 46t-46 112z" />
<glyph unicode="@" horiz-adv-x="2158" d="M164 510q0 184 72.5 354t195.5 293t293 195.5t354.5 72.5t354.5 -72.5t292.5 -195.5t195.5 -293t73 -326.5t-40 -259t-106 -163.5q-133 -121 -297 -121q-104 0 -186 52t-106 144h-21q-106 -145 -280.5 -145t-273.5 134t-99 333t113.5 331t316.5 132q145 0 229 -94l49 71 h222v-659q0 -84 33.5 -129t95.5 -45q90 0 167.5 103.5t77.5 287.5q0 334 -238.5 572.5t-572.5 238.5t-572.5 -238.5t-238.5 -572.5t238.5 -572.5t572.5 -238.5q221 0 412 113l47 -91q-215 -127 -459 -127q-184 0 -354 73t-293 196t-195.5 293t-72.5 354zM879 512 q0 -156 44 -248t134 -92q51 0 97 30.5t69 82.5v469q-23 45 -70 70.5t-96 25.5q-90 0 -134 -91t-44 -247z" />
<glyph unicode="A" horiz-adv-x="1343" d="M0 0v82h102l383 1270h-139v82h488l407 -1352h102v-82h-528v82h119l-76 252h-557l-74 -252h119v-82h-346zM330 426h499l-251 838z" />
<glyph unicode="B" horiz-adv-x="1449" d="M143 0v82h123v1270h-123v82h492q641 0 641 -390q0 -270 -318 -352v-14q379 -57 379 -311q0 -184 -168 -275.5t-473 -91.5h-553zM573 82h103q147 0 245.5 73.5t98.5 206t-98.5 206t-245.5 73.5h-103v-559zM573 719h60q145 0 240.5 86t95.5 235.5t-95.5 230.5t-240.5 81 h-60v-633z" />
<glyph unicode="C" horiz-adv-x="1331" d="M102 718.5q0 319.5 180.5 532.5t499.5 213q166 0 319.5 -65.5t153.5 -155.5q0 -35 -22 -80l-123 -237l-74 22l19 127q8 49 8 94q0 80 -78 139.5t-203 59.5q-178 0 -270 -183.5t-92 -457.5t97 -448.5t280 -174.5q102 0 188 43t130 90.5t93 118.5l72 -51 q-98 -158 -220 -247t-312 -89q-285 0 -465.5 215t-180.5 534.5z" />
<glyph unicode="D" horiz-adv-x="1601" d="M143 0v82h164v1270h-164v82h553q369 0 596.5 -200t227.5 -516.5t-227.5 -517t-596.5 -200.5h-553zM614 82h82q238 0 372 171t134 464t-134 464t-372 171h-82v-1270z" />
<glyph unicode="E" horiz-adv-x="1290" d="M143 0v82h123v1270h-123v82h879q45 0 66.5 -3.5t40 -22.5t18.5 -60l-55 -344h-80l-41 202q-18 92 -68.5 119t-185.5 27h-144v-701h471v-92h-471v-477h185q133 0 183 26.5t71 118.5l41 183h80l55 -324q0 -41 -18.5 -60.5t-40 -22.5t-66.5 -3h-920z" />
<glyph unicode="F" horiz-adv-x="1167" d="M143 0v82h123v1270h-123v82h879q45 0 66.5 -3.5t40 -22.5t18.5 -60l-55 -344h-80l-41 202q-18 92 -68.5 119t-185.5 27h-144v-701h431v-92h-431v-477h226v-82h-656z" />
<glyph unicode="G" horiz-adv-x="1433" d="M102 715q0 324 185.5 536.5t515.5 212.5q166 0 319.5 -65.5t153.5 -155.5q0 -35 -23 -80l-114 -188l-74 24l10 76q8 49 8 94q0 80 -77.5 139.5t-202.5 59.5q-188 0 -285.5 -183.5t-97.5 -458.5t105.5 -448.5t308.5 -173.5q82 0 159 33v422h-276v92h583v-696 q0 -225 -135 -332.5t-364 -107.5q-135 0 -259 68.5t-124 187.5q0 23 14 65l70 180q-180 80 -290 270.5t-110 428.5zM590 -12v-64q0 -233 98 -289q44 -25 121 -25h3q79 1 130 57.5t51 168.5v187q-123 -54 -266 -54q-72 0 -137 19z" />
<glyph unicode="H" horiz-adv-x="1658" d="M143 0v82h123v1270h-123v82h553v-82h-123v-701h512v701h-122v82h553v-82h-123v-1270h123v-82h-553v82h122v477h-512v-477h123v-82h-553z" />
<glyph unicode="I" horiz-adv-x="839" d="M123 0v82h143v1270h-143v82h594v-82h-144v-1270h144v-82h-594z" />
<glyph unicode="J" horiz-adv-x="1095" d="M20 190q0 35 23 80l123 238l74 -23l-19 -127q-8 -72 -8 -135t44 -110t119 -47t121 51t46 153v1082h-195v82h625v-82h-123v-963q0 -215 -130 -317.5t-349 -102.5q-125 0 -238 65.5t-113 155.5z" />
<glyph unicode="K" horiz-adv-x="1402" d="M143 0v82h123v1270h-123v82h553v-82h-123v-625l437 707h325v-82h-112l-594 -666h133q262 0 321 -199l86 -286q14 -51 37 -71.5t76 -20.5t125 59l37 -49q-164 -150 -348 -150q-94 0 -151.5 33t-82.5 115l-121 397q-16 57 -51 79.5t-117 27.5v-539h123v-82h-553z" />
<glyph unicode="L" horiz-adv-x="1167" d="M143 0v82h123v1270h-123v82h553v-82h-123v-1270h144q135 0 185 26.5t69 118.5l41 203h80l55 -344q0 -41 -18.5 -60.5t-40 -22.5t-66.5 -3h-879z" />
<glyph unicode="M" horiz-adv-x="1859" d="M41 0v82h123l72 1270h-138v82h453l373 -1227l352 1227h465v-82h-139l73 -1270h123v-82h-549v82h117l-63 1014l-316 -1096h-309l-334 1094l-57 -1012h119v-82h-365z" />
<glyph unicode="N" horiz-adv-x="1576" d="M123 0v82h123v1270h-123v82h479l586 -1153v1071h-123v82h389v-82h-123v-1352h-325l-617 1212v-1130h123v-82h-389z" />
<glyph unicode="O" horiz-adv-x="1572" d="M102 714.5q0 325.5 177.5 537.5t506 212t506.5 -211t178 -537.5t-178 -536.5t-506.5 -210t-506 210t-177.5 535.5zM420 715q0 -381 162 -555q86 -94 204 -94q176 0 271.5 188t95.5 461.5t-95.5 463t-271.5 189.5q-121 0 -204 -94q-162 -176 -162 -559z" />
<glyph unicode="P" horiz-adv-x="1347" d="M143 0v82h123v1270h-123v82h451q504 0 631 -242q51 -94 51 -229.5t-50 -229.5t-147 -145q-180 -96 -485 -96h-21v-410h164v-82h-594zM573 573h21q162 0 268.5 102.5t106.5 287t-106.5 287t-268.5 102.5h-21v-779z" />
<glyph unicode="Q" horiz-adv-x="1572" d="M102 721.5q0 318.5 177.5 530.5t506 212t506.5 -211t178 -538q0 -266 -121.5 -460t-349.5 -257l27 -143q20 -119 123 -119q55 0 143 80l56 -49q-47 -53 -82 -84t-93.5 -58.5t-119.5 -27.5q-250 0 -305 301l-15 73q-303 18 -467 225t-164 525.5zM420 715q0 -152 26 -273 q111 92 236 93q219 0 274 -302l17 -92q88 82 134 235.5t46 338.5q0 274 -95.5 463.5t-271.5 189.5q-121 0 -204 -94q-162 -176 -162 -559zM469 358q78 -238 246 -284l-37 202q-8 55 -41 87t-76 32t-92 -37z" />
<glyph unicode="R" horiz-adv-x="1423" d="M143 0v82h123v1270h-123v82h451q498 0 631 -230q51 -90 51 -219q0 -299 -340 -401q129 -43 172 -178l61 -205q14 -51 37 -71.5t76 -20.5t125 59l37 -49q-164 -150 -348 -150q-94 0 -151.5 33t-82.5 115l-96 315q-18 59 -57 82t-136 25v-457h164v-82h-594zM573 621h21 q162 0 268.5 95t106.5 269t-106.5 270.5t-268.5 96.5h-21v-731z" />
<glyph unicode="S" horiz-adv-x="1167" d="M92 190q0 35 23 80l98 189l72 -23v-172q0 -80 77.5 -139t200.5 -59t194.5 59t71.5 158q0 125 -149 206l-303 162q-262 141 -262 404q0 168 122.5 288.5t366.5 120.5q164 0 311.5 -65.5t147.5 -155.5q0 -35 -23 -80l-98 -188l-72 22v172q0 92 -80.5 145.5t-192.5 53.5 t-171 -65.5t-59 -149.5q0 -168 151 -248l260 -137q297 -156 297 -410q0 -193 -144.5 -291t-365.5 -98q-166 0 -319.5 65.5t-153.5 155.5z" />
<glyph unicode="T" horiz-adv-x="1269" d="M31 1348q0 41 18.5 60t40 22.5t66.5 3.5h958q45 0 66.5 -3.5t40 -22.5t18.5 -60l-55 -344h-80l-41 202q-18 92 -68.5 119t-185.5 27h-21v-1270h205v-82h-717v82h205v1270h-20q-135 0 -185.5 -27t-68.5 -119l-41 -202h-80z" />
<glyph unicode="U" horiz-adv-x="1433" d="M72 1352v82h553v-82h-123v-922q0 -160 86 -246t212 -86t221 87t95 245v922h-123v82h389v-82h-122v-858q0 -147 -44.5 -254t-121.5 -164q-145 -106 -363 -107q-217 0 -366 109q-80 55 -125 161.5t-45 256.5v856h-123z" />
<glyph unicode="V" horiz-adv-x="1402" d="M51 1352v82h432l72 -1096q14 -209 190 -209q131 0 228 98q188 193 188 572q0 211 -74 375q-37 82 -96 107.5t-157 25.5h-78l-13 75l213 72q35 10 61.5 10t45.5 -8q74 -31 145.5 -187.5t71.5 -420.5q0 -340 -145 -600q-70 -127 -190 -203t-273 -76q-225 0 -322.5 121 t-113.5 371l-58 891h-127z" />
<glyph unicode="W" horiz-adv-x="2164" d="M51 1352v82h432l72 -1096q14 -209 190 -209q190 0 304 225q-6 33 -11 107l-57 891h-127v82h432l72 -1096q14 -209 190 -209q117 0 205 98q170 193 170 572q0 211 -74 375q-37 82 -96 107.5t-158 25.5h-77l-13 75l213 72q35 10 61.5 10t45.5 -8q74 -31 145.5 -187.5 t71.5 -420.5q0 -344 -133 -600q-68 -127 -179.5 -203t-254.5 -76q-297 0 -388 230q-156 -229 -415 -230q-225 0 -322.5 121t-113.5 371l-58 891h-127z" />
<glyph unicode="X" horiz-adv-x="1425" d="M72 0v82h102l389 575l-362 695h-109v82h408l270 -516l240 516h315v-82h-102l-383 -568l307 -583q27 -53 52.5 -72.5t62.5 -19.5q70 0 129 59l45 -49q-127 -150 -318 -150q-96 0 -161.5 32t-108.5 116l-217 411l-244 -528h-315z" />
<glyph unicode="Y" horiz-adv-x="1243" d="M10 1352v82h406l323 -803l185 803h309v-82h-96l-349 -840v-430h205v-82h-717v82h205v430l-372 840h-99z" />
<glyph unicode="Z" horiz-adv-x="1208" d="M61 0v82l744 1270h-273q-135 0 -185 -27t-68 -119l-41 -202h-80l-56 344q0 41 18.5 60t40 22.5t66.5 3.5h910v-82l-729 -1270h309q133 0 183 26.5t71 118.5l41 183h80l55 -324q0 -41 -18.5 -60.5t-40 -22.5t-66.5 -3h-961z" />
<glyph unicode="[" horiz-adv-x="888" d="M266 152v1130q0 125 83 189.5t217 64.5t261 -55l-12 -47q-133 0 -192.5 -44t-59.5 -153v-1040q0 -109 59.5 -153t192.5 -44l12 -47q-127 -55 -261 -55t-217 64.5t-83 189.5z" />
<glyph unicode="\" horiz-adv-x="839" d="M61 1434h185l532 -1434h-184z" />
<glyph unicode="]" horiz-adv-x="888" d="M61 -47l13 47q133 0 192.5 44t59.5 153v1040q0 109 -59.5 153t-192.5 44l-13 47q127 55 261.5 55t217.5 -64.5t83 -189.5v-1130q0 -125 -83 -189.5t-217.5 -64.5t-261.5 55z" />
<glyph unicode="^" d="M195 901l307 533h143l307 -533h-133l-246 428l-245 -428h-133z" />
<glyph unicode="_" horiz-adv-x="1216" d="M154 0h909v-123h-909v123z" />
<glyph unicode="`" horiz-adv-x="759" d="M55 1460q0 47 34 77t74 30t67.5 -14.5t45 -32t52.5 -56.5l243 -270l-43 -49l-303 149q-96 47 -133 83t-37 83z" />
<glyph unicode="a" horiz-adv-x="1454" d="M133 511q0 237 132 390.5t370 153.5q182 0 280 -146v115h308v-797q0 -55 26.5 -86.5t81.5 -31.5t127 59l37 -49q-164 -150 -328 -150q-195 0 -239 183q-106 -182 -314 -183q-236 0 -358.5 152.5t-122.5 389.5zM451 512q0 -197 57 -311.5t175 -114.5t180.5 115.5 t62.5 310.5t-62.5 310.5t-180.5 115.5t-175 -114.5t-57 -311.5z" />
<glyph unicode="b" horiz-adv-x="1449" d="M0 1432q59 61 150.5 98t180.5 37t146.5 -36t57.5 -89v-549q109 162 301 162q236 0 358.5 -152.5t122.5 -389.5t-132 -390.5t-370 -153.5q-182 0 -280 146v-115h-308v1468q-113 -29 -172 -100zM524 512q0 -195 62.5 -310.5t180.5 -115.5t175 114.5t57 311.5t-57 311.5 t-175 114.5t-180.5 -115.5t-62.5 -310.5z" />
<glyph unicode="c" horiz-adv-x="1150" d="M133 512q0 229 150.5 386t392.5 157q135 0 264 -78t129 -211q0 -68 -48 -116t-115.5 -48t-116 48t-48.5 109.5t33 104.5t86 60q-55 24 -125 24h-6q-137 0 -207.5 -121.5t-70.5 -309t70.5 -304.5t207.5 -117q184 0 313 154l58 -37q-68 -111 -177.5 -177.5t-244.5 -66.5 q-244 0 -394.5 157t-150.5 386z" />
<glyph unicode="d" horiz-adv-x="1454" d="M133 511q0 237 132 390.5t370 153.5q182 0 280 -146v559q-113 -29 -172 -100l-55 64q59 61 150.5 98t180.5 37t146.5 -36t57.5 -89v-1215q0 -55 26.5 -86.5t76.5 -31.5t122 59l47 -49q-164 -150 -328 -150q-195 0 -239 183q-106 -182 -314 -183q-236 0 -358.5 152.5 t-122.5 389.5zM451 512q0 -197 57 -311.5t175 -114.5t180.5 115.5t62.5 310.5t-62.5 310.5t-180.5 115.5t-175 -114.5t-57 -311.5z" />
<glyph unicode="e" horiz-adv-x="1222" d="M133 518q0 227 154.5 382t429.5 155q180 0 282.5 -84t102.5 -213t-114 -238.5t-300 -109.5q-63 0 -123 14l-4 49q133 12 206 101.5t73 180.5t-40 140t-121 49t-154.5 -114.5t-73.5 -307t69.5 -309.5t198.5 -117q197 0 334 154l57 -37q-70 -111 -184.5 -177.5 t-257.5 -66.5q-244 0 -389.5 161t-145.5 388z" />
<glyph unicode="f" horiz-adv-x="868" d="M80 911v84h168v207q0 162 92 263.5t297 101.5q100 0 191.5 -37t150.5 -98l-55 -64q-88 76 -197 76q-172 0 -172 -225v-224h231v-84h-231v-1181h-307v1181h-168z" />
<glyph unicode="g" horiz-adv-x="1269" d="M164 625q0 182 133 306t348 124q156 0 277 -72q88 80 120 209l80 -21q-37 -143 -135 -237q139 -127 139 -309.5t-133 -306t-348 -123.5q-147 0 -256 59q-72 -100 -72 -152q0 -102 119 -102h379q301 0 301 -221q0 -158 -149 -322l-49 47q59 72 59 122t-32 77t-87 27h-379 q-301 0 -301 252q0 137 152 309q-166 121 -166 334zM481 624.5q0 -151.5 42 -247.5t124 -96t124 96t42 247.5t-42 248t-124 96.5t-124 -96.5t-42 -248z" />
<glyph unicode="h" horiz-adv-x="1421" d="M0 1432q59 61 150.5 98t180.5 37t146.5 -36t57.5 -89v-527q72 78 154.5 109t210.5 31t209 -81t81 -220v-527q0 -55 26.5 -86.5t82 -31.5t126.5 59l37 -49q-164 -150 -327 -150q-252 0 -252 301v527q0 63 -39 98t-108.5 35t-135 -57.5t-65.5 -149.5v-723h-308v1468 q-113 -29 -172 -100z" />
<glyph unicode="i" horiz-adv-x="817" d="M51 920q59 61 150.5 98t191.5 37q193 0 193 -166v-662q0 -55 26.5 -86.5t82 -31.5t126.5 59l37 -49q-164 -150 -328 -150q-252 0 -251 301v686q-113 -29 -173 -100zM268 1372.5q0 67.5 48.5 115.5t116 48t115.5 -48t48 -115.5t-48 -116t-115.5 -48.5t-116 48.5t-48.5 116 z" />
<glyph unicode="j" horiz-adv-x="784" d="M-137 -408l45 64q88 -76 207 -76q172 0 172 225v1151q-113 -29 -172 -100l-56 64q59 61 150.5 98t180.5 37t146.5 -36t57.5 -89v-1108q0 -162 -92 -263.5t-297 -101.5q-100 0 -191.5 37t-150.5 98zM276 1372.5q0 67.5 48.5 115.5t116 48t115.5 -48t48 -115.5t-48 -116 t-115.5 -48.5t-116 48.5t-48.5 116z" />
<glyph unicode="k" horiz-adv-x="1325" d="M0 1432q59 61 150.5 98t180.5 37t146.5 -36t57.5 -89v-531q111 143 339 144q131 0 213 -65.5t82 -165t-59 -177.5t-162 -127l123 -319q20 -53 41 -72.5t57 -19.5q68 0 140 59l37 -49q-164 -150 -339.5 -150t-232.5 148l-153 393q113 27 187.5 111t74.5 161.5t-39 112.5 t-99 35q-98 0 -154 -79t-56 -216v-635h-308v1468q-113 -29 -172 -100z" />
<glyph unicode="l" horiz-adv-x="765" d="M0 1432q59 61 150.5 98t180.5 37t146.5 -36t57.5 -89v-1215q0 -55 26.5 -86.5t81.5 -31.5t127 59l37 -49q-164 -150 -328 -150q-252 0 -252 301v1198q-113 -29 -172 -100z" />
<glyph unicode="m" horiz-adv-x="2062" d="M61 987q88 37 189.5 37t168 -24.5t138.5 -77.5q74 74 150.5 103.5t181.5 29.5q209 0 278 -160q80 88 161 124t211 36t211 -81t81 -220v-527q0 -55 26.5 -86.5t82 -31.5t126.5 59l37 -49q-164 -150 -327 -150q-252 0 -252 301v527q0 63 -37 98t-101.5 35t-127 -55.5 t-62.5 -143.5v-731h-307v797q0 63 -37 98t-101.5 35t-127 -55.5t-62.5 -143.5v-731h-307v942q-92 0 -164 -31z" />
<glyph unicode="n" horiz-adv-x="1447" d="M61 987q89 37 193 37q168 0 303 -102q78 74 160 103.5t210 29.5t209 -81t81 -220v-527q0 -55 26.5 -86.5t81.5 -31.5t127 59l37 -49q-164 -150 -328 -150q-252 0 -252 301v527q0 63 -39 98t-107.5 35t-135 -55.5t-66.5 -143.5v-731h-307v942q-92 0 -164 -31z" />
<glyph unicode="o" horiz-adv-x="1351" d="M133 512q0 229 150.5 386t392.5 157t392.5 -157t150.5 -386t-150.5 -386t-392.5 -157t-392.5 157t-150.5 386zM451 512q0 -201 57 -329t170 -128t170 128t57 329t-57 329t-170 128t-170 -128t-57 -329z" />
<glyph unicode="p" horiz-adv-x="1476" d="M61 987q89 37 193 37q188 0 326 -104q109 135 282 135q236 0 358.5 -152.5t122.5 -389.5t-132 -390.5t-369 -153.5q-176 0 -281 158v-639h-307v1454q-92 0 -164 -31zM551 512q0 -195 62.5 -310.5t180 -115.5t175 114.5t57.5 311.5t-57.5 311.5t-175 114.5t-180 -115.5 t-62.5 -310.5z" />
<glyph unicode="q" horiz-adv-x="1427" d="M133 511q0 237 132 390.5t370 153.5q182 0 280 -146v115h308v-1536h-308v643q-109 -162 -301 -162q-236 0 -358.5 152.5t-122.5 389.5zM451 512q0 -197 57 -311.5t175 -114.5t180.5 115.5t62.5 310.5t-62.5 310.5t-180.5 115.5t-175 -114.5t-57 -311.5z" />
<glyph unicode="r" horiz-adv-x="1097" d="M20 943.5q0 66.5 46.5 112.5t113 46t111.5 -47t45 -121h39q162 0 344 90q59 31 86 31q61 0 61 -117v-711q0 -55 27 -86.5t82 -31.5t127 59l37 -49q-164 -150 -328 -150q-252 0 -252 301v576q-96 -39 -233 -53q-16 -188 -109 -377l-84 24q57 145 62 346q-78 0 -126.5 45.5 t-48.5 112z" />
<glyph unicode="s" horiz-adv-x="970" d="M92 379q155 252 266 477q-49 76 -49 135.5t46 105.5t111.5 46t112 -46t46.5 -109.5t-64 -135.5q168 -123 258 -240.5t90 -272.5t-116.5 -262.5t-331.5 -107.5q-98 0 -197.5 43t-150.5 107l47 49q90 -72 194.5 -72t171 56.5t66.5 175.5q0 188 -139 393l-310 -387z" />
<glyph unicode="t" horiz-adv-x="868" d="M80 911v84h168v295h307v-295h231v-84h-231v-684q0 -55 26.5 -86.5t82 -31.5t127.5 59l36 -49q-164 -150 -327 -150q-252 0 -252 301v641h-168z" />
<glyph unicode="u" horiz-adv-x="1447" d="M27 920q59 61 150 98t180 37t146.5 -36t57.5 -89v-703q0 -63 39 -98t108.5 -35t135 57.5t65.5 149.5v723h308v-797q0 -55 26.5 -86.5t81.5 -31.5t127 59l37 -49q-164 -150 -334 -150t-225 152q-80 -84 -165 -118t-217 -34t-213 81t-81 220v686q-113 -29 -172 -100z" />
<glyph unicode="v" horiz-adv-x="1267" d="M41 920q59 61 150.5 98t180.5 37t146 -36t57 -89v-682q0 -66 41 -99.5t103 -33.5q129 0 223 134t94 329q0 98 -39 206q-36 -25 -92 -25q-1 1 -2 1q-57 0 -103 46t-46 111.5t46 111.5t115.5 46t119.5 -52t71 -138q39 -150 39 -293t-35 -249.5t-90 -173.5t-123 -114 q-127 -86 -252 -86q-174 0 -275.5 87t-101.5 255v645q-113 -29 -172 -100z" />
<glyph unicode="w" horiz-adv-x="1933" d="M41 920q59 61 150.5 98t180.5 37t146 -36t57 -89v-682q0 -66 41 -99.5t103 -33.5q139 0 217 137q-2 18 -2 59v645q-113 -29 -172 -100l-55 64q59 61 150 98t180 37t146.5 -36t57.5 -89v-682q0 -66 41 -99.5t102 -33.5q129 0 223.5 134t94.5 329q0 98 -39 206 q-36 -25 -92 -25q-1 1 -3 1q-58 0 -103.5 46t-45.5 111.5t46 111.5t116 46t120 -52t73 -138q37 -148 37 -289q1 -146 -35 -254q-34 -106 -90 -173t-125 -114q-125 -86 -250 -86q-244 0 -336 160q-68 -78 -160 -119t-170 -41q-174 0 -275.5 87t-101.5 255v645 q-113 -29 -172 -100z" />
<glyph unicode="x" horiz-adv-x="1329" d="M82 905q158 150 330 150t241 -148l88 -186q55 147 143.5 240.5t200.5 93.5q66 0 112 -46t46 -112t-46 -112t-107.5 -46t-103.5 33t-54 86q-90 -88 -139 -244l198 -413q27 -53 46.5 -72.5t54.5 -19.5q70 0 137 59l39 -49q-158 -150 -330 -150t-242 148l-88 182 q-55 -147 -141 -238.5t-195 -91.5q-70 0 -116.5 46t-46.5 112t46 112t106.5 46t102.5 -34t56 -85q88 86 137 240l-199 417q-27 53 -46 72.5t-54 19.5q-70 0 -137 -59z" />
<glyph unicode="y" horiz-adv-x="1284" d="M27 920q59 61 150 98t180 37t146.5 -36t57.5 -89v-621q0 -66 41 -99.5t103 -33.5q131 0 224 112.5t93 289.5q0 98 -39 206q-36 -25 -92 -25q-1 0 -3 1q-57 0 -103 46t-46 111.5t46 111.5t116 46t120 -52t73 -138q37 -148 37 -326q0 -184 -43 -369q-41 -182 -110 -313 t-155 -227q-176 -193 -358 -193q-49 0 -81 21.5t-73 79.5l-106 147l53 55q98 -16 172 -16q229 0 374.5 145.5t229.5 472.5q-127 -352 -467 -352q-131 0 -222 89t-91 253v604q-113 -29 -172 -100z" />
<glyph unicode="z" horiz-adv-x="1269" d="M154 0v82l630 860h-170q-135 0 -185 -26.5t-69 -118.5l-41 -203h-79l-56 344q0 41 18.5 60.5t40 22.5t66.5 3h807v-82l-616 -860h196q135 0 185.5 26.5t68.5 118.5l41 203h80l55 -344q0 -41 -18 -60.5t-40 -22.5t-67 -3h-847z" />
<glyph unicode="{" horiz-adv-x="884" d="M102 684v66q96 4 140 14q80 23 80 95.5t-30 213.5t-30 209q0 125 83 189.5t217 64.5t261 -55l-12 -47q-133 0 -192.5 -44t-59.5 -153v-242q0 -106 -45 -182t-115 -96q70 -20 115 -96.5t45 -182.5v-241q0 -109 59.5 -153t192.5 -44l12 -47q-127 -55 -261 -55t-217 64.5 t-83 189.5q0 68 30 209t30 194t-18.5 77.5t-57.5 35.5q-47 12 -144 16z" />
<glyph unicode="|" horiz-adv-x="839" d="M307 -205v1843h225v-1843h-225z" />
<glyph unicode="}" horiz-adv-x="884" d="M61 -47l13 47q133 0 192.5 44t59.5 153v241q0 106 45 182t114 97q-70 20 -114.5 96t-44.5 182v242q0 109 -59.5 153t-192.5 44l-13 47q127 55 261.5 55t217.5 -64.5t83 -189.5q0 -68 -30 -209t-30 -194.5t18.5 -78t57.5 -34.5q47 -12 143 -16v-66q-96 -4 -139 -14 q-80 -23 -80 -95.5t30 -214t30 -208.5q0 -125 -83 -189.5t-217.5 -64.5t-261.5 55z" />
<glyph unicode="~" d="M184 655v123q74 -37 156 -37t232.5 36t231.5 36t159 -35v-123q-76 39 -158 39t-233.5 -39t-233.5 -39t-154 39z" />
<glyph unicode="&#xa1;" horiz-adv-x="733" d="M205 -283.5q0 64.5 17.5 205.5t46 347t42.5 339h111q14 -133 43 -339t46 -347t17 -205.5t-44 -110.5t-117.5 -46t-117.5 46t-44 110.5zM209 897q0 66 46 112t111.5 46t111.5 -46t46 -112t-46 -112t-111.5 -46t-111.5 46t-46 112z" />
<glyph unicode="&#xa2;" horiz-adv-x="1331" d="M182 717q0 213 132 365.5t348 172.5v383h61v-378q84 0 172 -31t155.5 -99.5t67.5 -144.5t-43 -119t-104.5 -43t-104.5 43t-43 100.5t32 97.5t83 50q-72 39 -160 39q-31 0 -55 -6v-840q25 -6 55 -6q186 0 314 154l57 -37q-68 -111 -179.5 -177.5t-246.5 -66.5v-379h-61 v381q-217 23 -348.5 175.5t-131.5 365.5zM500 717q0 -137 41 -240.5t121 -146.5v792q-162 -92 -162 -405z" />
<glyph unicode="&#xa3;" horiz-adv-x="1331" d="M154 0v82q186 190 186 448q0 47 -10 103h-176v92h153q-6 20 -37 100q-55 143 -55 260q0 160 122 269.5t318 109.5q262 0 400 -123q76 -68 75 -165q0 -68 -47 -116t-116.5 -48t-116.5 44t-47 109.5t31.5 107.5t80.5 58q-68 27 -145 27q-121 0 -189.5 -83t-68.5 -214 q0 -63 13.5 -180t15.5 -156h391v-92h-389q-4 -227 -174 -445h379q129 0 190 37t80 131l14 74h80l55 -344q0 -41 -18.5 -60.5t-40 -22.5t-66.5 -3h-888z" />
<glyph unicode="&#xa4;" horiz-adv-x="1331" d="M131 281l186 186q-74 113 -73.5 252t75.5 246l-188 188l98 98l189 -188q106 74 245.5 74t249.5 -74l189 188l98 -98l-188 -188q76 -106 75.5 -248t-73.5 -250l186 -186l-98 -99l-187 187q-109 -76 -252 -76t-247 76l-187 -187zM391 715.5q0 -115.5 77 -195.5t198.5 -80 t197.5 80t76 195.5t-76 194.5t-197.5 79t-198.5 -79t-77 -194.5z" />
<glyph unicode="&#xa5;" horiz-adv-x="1331" d="M41 1352v82h410l323 -799l236 502q-59 10 -100.5 56t-41.5 111.5t47.5 112.5t115 47t116.5 -48t49 -101t-53 -162l-182 -367h190v-92h-236l-96 -194h332v-92h-328v-326h205v-82h-717v82h205v326h-328v92h328v12l-82 182h-246v92h205l-250 566h-102z" />
<glyph unicode="&#xa6;" horiz-adv-x="839" d="M307 -205v668h225v-668h-225zM307 971v667h225v-667h-225z" />
<glyph unicode="&#xa7;" horiz-adv-x="1003" d="M82 589q0 197 174 279q-133 106 -133 277q0 135 98 227t271 92q246 0 395 -215l-72 -53q-61 90 -143 136t-170 46t-158 -56t-70 -146q0 -123 136 -195l221 -121q270 -150 270 -347.5t-174 -281.5q133 -109 133 -274q0 -135 -98 -227t-270 -92q-246 0 -396 215l72 53 q61 -90 143 -136t170 -46t158 56t70 146q0 123 -136 195l-221 121q-270 150 -270 347zM172 649.5q0 -63.5 55.5 -116t167.5 -111.5l219 -117q20 -10 58 -35q59 20 99 69.5t40 113t-55.5 116t-167.5 111.5l-279 149q-59 -20 -98 -68t-39 -111.5z" />
<glyph unicode="&#xa8;" horiz-adv-x="1003" d="M111 1372.5q0 65.5 45 110.5t110.5 45t110.5 -45t45 -110.5t-45 -110.5t-110.5 -45t-110.5 45t-45 110.5zM582 1372.5q0 65.5 45 110.5t110.5 45t110.5 -45t45 -110.5t-45 -110.5t-110.5 -45t-110.5 45t-45 110.5z" />
<glyph unicode="&#xa9;" horiz-adv-x="1662" d="M139 960.5q0 284.5 203 488.5t489.5 204t489.5 -204t203 -488.5t-203 -488.5t-489.5 -204t-489.5 204t-203 488.5zM217 960.5q0 -253.5 180.5 -434t434 -180.5t434 180.5t180.5 434t-180.5 434t-434 180.5t-434 -180.5t-180.5 -434zM436 963.5q0 193.5 109.5 323.5 t304.5 130q100 0 195.5 -43t95.5 -100q0 -20 -15 -53l-77 -150l-60 19l10 90q4 20 4.5 56t-42.5 67.5t-111 31.5q-98 0 -149.5 -104.5t-51.5 -262t54.5 -256t146.5 -98.5t147.5 42t102.5 110l59 -43q-63 -100 -138 -156.5t-192 -56.5q-174 0 -283.5 130t-109.5 323.5z" />
<glyph unicode="&#xaa;" horiz-adv-x="1181" d="M166 1081q0 166 94 274.5t262 108.5q115 0 180 -75l41 57h193v-557q0 -70 55 -70q43 0 96 45l39 -49q-131 -117 -239 -117q-133 0 -164 119h-16q-31 -53 -84.5 -86t-114.5 -33q-168 0 -255 108.5t-87 274.5zM410 1082.5q0 -279.5 145 -279.5q74 0 114 76.5t40 203.5 t-40 203t-114 76q-145 0 -145 -279.5z" />
<glyph unicode="&#xab;" horiz-adv-x="995" d="M61 598q0 66 58 119l295 282l49 -43l-195 -350v-16l195 -350l-49 -43l-295 282q-58 53 -58 119zM471 598q0 66 57 119l295 282l49 -43l-194 -350v-16l194 -350l-49 -43l-295 282q-57 53 -57 119z" />
<glyph unicode="&#xac;" d="M184 655v123h779v-436h-111v313h-668z" />
<glyph unicode="&#xad;" horiz-adv-x="819" d="M102 516v123h615v-123h-615z" />
<glyph unicode="&#xae;" horiz-adv-x="1662" d="M139 960.5q0 284.5 203 488.5t489.5 204t489.5 -204t203 -488.5t-203 -488.5t-489.5 -204t-489.5 204t-203 488.5zM217 960.5q0 -253.5 180.5 -434t434 -180.5t434 180.5t180.5 434t-180.5 434t-434 180.5t-434 -180.5t-180.5 -434zM485 528v72h74v725h-74v74h279 q416 0 416 -277q0 -168 -179 -239q59 -35 78 -99l37 -120q12 -47 51 -48q31 0 78 41l37 -47q-115 -100 -228.5 -100t-142.5 94l-59 189q-8 27 -26.5 39t-61.5 14v-318h-279zM764 920q92 0 150.5 52t58.5 149.5t-58.5 150.5t-150.5 53v-405z" />
<glyph unicode="&#xaf;" horiz-adv-x="1003" d="M201 1253v181h602v-181h-602z" />
<glyph unicode="&#xb0;" horiz-adv-x="1097" d="M166 1083.5q0 161.5 105.5 271t277.5 109.5t277.5 -109.5t105.5 -272t-105.5 -273.5t-277.5 -111t-277.5 112t-105.5 273.5zM344 1083.5q0 -133.5 51 -217.5t155.5 -84t156 84t51.5 217.5t-51.5 216t-156 82.5t-155.5 -82.5t-51 -216z" />
<glyph unicode="&#xb1;" d="M184 0v123h779v-123h-779zM184 655v123h328v328h123v-328h328v-123h-328v-327h-123v327h-328z" />
<glyph unicode="&#xb2;" horiz-adv-x="901" d="M129 678v63l289 293q121 121 121 258q0 80 -46.5 133.5t-115.5 53.5q-31 0 -64 -9q45 -31 45 -80t-32.5 -82.5t-76.5 -33.5t-76 32.5t-32 75.5q0 84 85 134.5t212 50.5t209 -68.5t82 -167.5q0 -51 -41 -117.5t-75.5 -103.5t-104.5 -104l-197 -193h168q72 0 104.5 19.5 t43.5 68.5l12 55h66l34 -215q0 -31 -13 -45t-26.5 -16t-44.5 -2h-526z" />
<glyph unicode="&#xb3;" horiz-adv-x="901" d="M141 844q0 43 32 75.5t76 32.5t76.5 -32.5t32.5 -86t-47 -83.5q25 -4 41 -5q92 0 141.5 52.5t49.5 120t-46 115.5t-132 48h-76v74h94q84 0 128 52.5t44 118t-43 109.5t-123 44q-30 -1 -63 -9q45 -31 45 -81t-33 -82.5t-77 -32.5t-75.5 32.5t-31.5 75.5q0 84 87 134.5 t215 50.5t206.5 -68.5t78.5 -167.5q0 -135 -147 -213q74 -29 117 -82t43 -116q0 -111 -92.5 -186t-222.5 -75t-214 49.5t-84 135.5z" />
<glyph unicode="&#xb4;" horiz-adv-x="759" d="M188 1194l244 270q35 39 52.5 56.5t45 32t67.5 14.5t74 -30t34 -77t-37 -83t-133 -83l-304 -149z" />
<glyph unicode="&#xb5;" horiz-adv-x="1447" d="M27 920q59 61 150 98t180 37t146.5 -36t57.5 -89v-836q348 0 348 207v723h308v-797q0 -55 26.5 -86.5t81.5 -31.5t127 59l37 -49q-164 -150 -334 -150t-225 152q-78 -82 -161 -116t-208 -36v-481h-307v1468q-113 -29 -172 -100z" />
<glyph unicode="&#xb6;" horiz-adv-x="1122" d="M0 1046.5q0 176.5 115.5 297t302 120.5t302.5 -120.5t116 -296.5v-965h143v-82h-758v82h320v547h-123q-186 0 -302 120.5t-116 297z" />
<glyph unicode="&#xb7;" horiz-adv-x="561" d="M123 598q0 66 46 112t111.5 46t111.5 -46t46 -112t-46 -112t-111.5 -46t-111.5 46t-46 112z" />
<glyph unicode="&#xb8;" horiz-adv-x="675" d="M143 -401q0 35 25 59.5t58.5 24.5t59 -26t25.5 -64.5t-37 -65.5q16 -4 31 -4q59 0 95 37t36 87t-39 89t-110 39l-45 35l90 190h61l-78 -158q35 15 84 15q96 0 155.5 -55.5t59.5 -139.5t-70.5 -144.5t-171 -60.5t-165 37t-64.5 105z" />
<glyph unicode="&#xb9;" horiz-adv-x="743" d="M72 1329v72q115 0 213 41t153 106h72v-798h156v-72h-543v72h180v618q-100 -39 -231 -39z" />
<glyph unicode="&#xba;" horiz-adv-x="1097" d="M166 1083.5q0 161.5 105.5 271t277.5 109.5t277.5 -109.5t105.5 -272t-105.5 -273.5t-277.5 -111t-277.5 112t-105.5 273.5zM408 1083.5q0 -133.5 35.5 -217.5t107.5 -84t107.5 84t35.5 217.5t-35.5 216t-107.5 82.5t-107.5 -82.5t-35.5 -216z" />
<glyph unicode="&#xbb;" horiz-adv-x="995" d="M123 240l194 350v16l-194 350l49 43l295 -282q57 -53 57 -119t-57 -119l-295 -282zM532 240l195 350v16l-195 350l50 43l295 -282q57 -53 57 -119t-57 -119l-295 -282z" />
<glyph unicode="&#xbc;" horiz-adv-x="2138" d="M143 1214v72q115 0 213.5 41t153.5 107h72v-799h155v-72h-542v72h180v618q-100 -39 -232 -39zM618 0l799 1434h82l-799 -1434h-82zM1286 190v78q182 168 197 602h229q0 -174 -89 -332.5t-212 -261.5h246v240q106 39 131 131h76v-371h71v-86h-71v-118h143v-72h-506v72h156 v118h-371z" />
<glyph unicode="&#xbd;" horiz-adv-x="2138" d="M143 1214v72q115 0 213.5 41t153.5 107h72v-799h155v-72h-542v72h180v618q-100 -39 -232 -39zM618 0l799 1434h82l-799 -1434h-82zM1323 0v63l289 293q121 121 121 258q0 80 -46.5 133.5t-115.5 53.5q-31 0 -64 -8q45 -31 45 -80t-32.5 -83t-76.5 -34t-76 33t-32 76 q0 84 85 134t212 50t209 -68.5t82 -167.5q0 -51 -41 -117.5t-75.5 -103.5t-104.5 -104l-197 -193h168q72 0 104.5 19.5t43.5 68.5l12 56h65l35 -216q0 -31 -13 -45t-26.5 -16t-44.5 -2h-526z" />
<glyph unicode="&#xbe;" horiz-adv-x="2138" d="M193 729q0 43 31.5 76t75.5 33t77 -33t33 -86t-48 -84q25 -4 41 -4q92 0 141.5 52t49.5 119.5t-46 116t-132 48.5h-76v73h94q84 0 128 52.5t44 118t-43 109.5t-123 44q-30 0 -63 -8q45 -31 45 -81t-33 -83t-77 -33t-75.5 33t-31.5 76q0 84 87 134t215 50t207 -68.5 t79 -166.5q0 -135 -148 -213q74 -29 117 -82.5t43 -116.5q0 -111 -92 -185.5t-222.5 -74.5t-214 49t-83.5 135zM639 0l799 1434h82l-799 -1434h-82zM1286 190v78q182 168 197 602h229q0 -174 -89 -332.5t-212 -261.5h246v240q106 39 131 131h76v-371h71v-86h-71v-118h143 v-72h-506v72h156v118h-371z" />
<glyph unicode="&#xbf;" horiz-adv-x="1079" d="M102 -63.5q0 157.5 106.5 275.5t291.5 159l28 237h111l35 -299q-160 -28 -227.5 -127.5t-67.5 -220.5t71.5 -208t206.5 -87q66 0 117 23q-55 14 -90 58t-35 105.5t49.5 110.5t117 49t114.5 -48t47 -116q0 -137 -130 -212.5t-315.5 -75.5t-307.5 109.5t-122 267zM426 897 q0 66 46 112t111.5 46t111.5 -46t46 -112t-46 -112t-111.5 -46t-111.5 46t-46 112z" />
<glyph unicode="&#xc0;" horiz-adv-x="1343" d="M0 0v82h102l383 1270h-139v82h488l407 -1352h102v-82h-528v82h119l-76 252h-557l-74 -252h119v-82h-346zM330 426h499l-251 838zM373 1870q0 47 33.5 76.5t73.5 29.5t67.5 -14t45 -31.5t52.5 -56.5l244 -270l-43 -50l-303 150q-96 47 -133 83t-37 83z" />
<glyph unicode="&#xc1;" horiz-adv-x="1343" d="M0 0v82h102l383 1270h-139v82h488l407 -1352h102v-82h-528v82h119l-76 252h-557l-74 -252h119v-82h-346zM330 426h499l-251 838zM436 1604l244 270q35 39 52.5 56.5t45 31.5t67.5 14t73.5 -29.5t33.5 -76.5t-36.5 -83t-133.5 -83l-303 -150z" />
<glyph unicode="&#xc2;" horiz-adv-x="1343" d="M0 0v82h102l383 1270h-139v82h488l407 -1352h102v-82h-528v82h119l-76 252h-557l-74 -252h119v-82h-346zM291 1604l221 294q57 78 118.5 78t119.5 -78l221 -294l-43 -50l-289 195h-16l-289 -195zM330 426h499l-251 838z" />
<glyph unicode="&#xc3;" horiz-adv-x="1343" d="M0 0v82h102l383 1270h-139v82h488l407 -1352h102v-82h-528v82h119l-76 252h-557l-74 -252h119v-82h-346zM330 426h499l-251 838zM375 1793q0 71 16 136h74v-31q0 -80 57 -79q25 0 47 14l174 98q66 39 123.5 39t103.5 -53t46 -124t-17 -136h-73v31q0 80 -58 79 q-25 0 -47 -14l-174 -98q-66 -39 -123 -39t-103 53t-46 124z" />
<glyph unicode="&#xc4;" horiz-adv-x="1343" d="M0 0v82h102l383 1270h-139v82h488l407 -1352h102v-82h-528v82h119l-76 252h-557l-74 -252h119v-82h-346zM262 1781.5q0 65.5 45 110.5t110.5 45t110.5 -45t45 -110.5t-45 -110.5t-110.5 -45t-110.5 45t-45 110.5zM330 426h499l-251 838zM733 1781.5q0 65.5 45 110.5 t110.5 45t110.5 -45t45 -110.5t-45 -110.5t-110.5 -45t-110.5 45t-45 110.5z" />
<glyph unicode="&#xc5;" horiz-adv-x="1343" d="M0 0v82h102l383 1270h-139v82h488l407 -1352h102v-82h-528v82h119l-76 252h-557l-74 -252h119v-82h-346zM330 426h499l-251 838zM367 1780.5q0 107.5 75.5 174t188 66.5t188.5 -66.5t76 -174t-76 -173t-188.5 -65.5t-188 65.5t-75.5 173zM539 1780q0 -170 91 -170t91 170 t-91 170t-91 -170z" />
<glyph unicode="&#xc6;" horiz-adv-x="1867" d="M-41 0v82h107l436 1270h-137v82h1234q45 0 67 -3.5t40 -22.5t18 -60l-55 -344h-80l-41 202q-18 92 -68 119t-186 27h-143v-701h471v-92h-471v-477h184q133 0 183.5 26.5t70.5 118.5l41 183h80l55 -324q0 -41 -18 -60.5t-39.5 -22.5t-67.5 -3h-919v82h123v477h-492 l-164 -477h117v-82h-346zM383 651h461v701h-223z" />
<glyph unicode="&#xc7;" horiz-adv-x="1331" d="M102 734q0 304 180.5 517t499.5 213q166 0 319.5 -65.5t153.5 -155.5q0 -35 -22 -80l-123 -237l-74 22l19 127q8 49 8 94q0 80 -78 139.5t-203 59.5q-178 0 -270 -183.5t-92 -457.5t97 -448.5t280 -174.5q102 0 188 43t130 90.5t93 118.5l72 -51q-98 -158 -220 -247 t-312 -89q-29 0 -41 2l-64 -129q35 14 84 15q96 0 155.5 -55.5t59.5 -139.5t-70.5 -144.5t-171 -60.5t-165 37t-64.5 105q0 35 24.5 59.5t58.5 24.5t59.5 -26t25.5 -64.5t-37 -65.5q16 -4 31 -4q59 0 95 37t36 87t-39 89t-111 39l-45 35l78 167q-244 39 -394.5 246 t-150.5 511z" />
<glyph unicode="&#xc8;" horiz-adv-x="1290" d="M143 0v82h123v1270h-123v82h879q45 0 66.5 -3.5t40 -22.5t18.5 -60l-55 -344h-80l-41 202q-18 92 -68.5 119t-185.5 27h-144v-701h471v-92h-471v-477h185q133 0 183 26.5t71 118.5l41 183h80l55 -324q0 -41 -18.5 -60.5t-40 -22.5t-66.5 -3h-920zM387 1870q0 47 34 76.5 t74 29.5t67.5 -14t45 -31.5t51.5 -56.5l244 -270l-43 -50l-303 150q-96 47 -133 83t-37 83z" />
<glyph unicode="&#xc9;" horiz-adv-x="1290" d="M143 0v82h123v1270h-123v82h879q45 0 66.5 -3.5t40 -22.5t18.5 -60l-55 -344h-80l-41 202q-18 92 -68.5 119t-185.5 27h-144v-701h471v-92h-471v-477h185q133 0 183 26.5t71 118.5l41 183h80l55 -324q0 -41 -18.5 -60.5t-40 -22.5t-66.5 -3h-920zM387 1604l244 270 q35 39 52 56.5t45 31.5t68 14t73.5 -29.5t33.5 -76.5t-37 -83t-133 -83l-303 -150z" />
<glyph unicode="&#xca;" horiz-adv-x="1290" d="M143 0v82h123v1270h-123v82h879q45 0 66.5 -3.5t40 -22.5t18.5 -60l-55 -344h-80l-41 202q-18 92 -68.5 119t-185.5 27h-144v-701h471v-92h-471v-477h185q133 0 183 26.5t71 118.5l41 183h80l55 -324q0 -41 -18.5 -60.5t-40 -22.5t-66.5 -3h-920zM346 1604l221 294 q58 78 119.5 78t118.5 -78l221 -294l-43 -50l-289 195h-16l-289 -195z" />
<glyph unicode="&#xcb;" horiz-adv-x="1290" d="M143 0v82h123v1270h-123v82h879q45 0 66.5 -3.5t40 -22.5t18.5 -60l-55 -344h-80l-41 202q-18 92 -68.5 119t-185.5 27h-144v-701h471v-92h-471v-477h185q133 0 183 26.5t71 118.5l41 183h80l55 -324q0 -41 -18.5 -60.5t-40 -22.5t-66.5 -3h-920zM254 1781.5 q0 65.5 45 110.5t110.5 45t110.5 -45t45 -110.5t-45 -110.5t-110.5 -45t-110.5 45t-45 110.5zM725 1781.5q0 65.5 45 110.5t110.5 45t110.5 -45t45 -110.5t-45 -110.5t-110.5 -45t-110.5 45t-45 110.5z" />
<glyph unicode="&#xcc;" horiz-adv-x="839" d="M123 0v82h143v1270h-143v82h594v-82h-144v-1270h144v-82h-594zM162 1870q0 47 33.5 76.5t73.5 29.5t68 -14t45 -31.5t52 -56.5l244 -270l-43 -50l-303 150q-96 47 -133 83t-37 83z" />
<glyph unicode="&#xcd;" horiz-adv-x="839" d="M123 0v82h143v1270h-143v82h594v-82h-144v-1270h144v-82h-594zM203 1604l243 270q35 39 52.5 56.5t45 31.5t67.5 14t74 -29.5t34 -76.5t-37 -83t-133 -83l-303 -150z" />
<glyph unicode="&#xce;" horiz-adv-x="839" d="M80 1604l221 294q57 78 118.5 78t119.5 -78l221 -294l-43 -50l-289 195h-16l-289 -195zM123 0v82h143v1270h-143v82h594v-82h-144v-1270h144v-82h-594z" />
<glyph unicode="&#xcf;" horiz-adv-x="839" d="M8 1781.5q0 65.5 45 110.5t110.5 45t110.5 -45t45 -110.5t-45 -110.5t-110.5 -45t-110.5 45t-45 110.5zM123 0v82h143v1270h-143v82h594v-82h-144v-1270h144v-82h-594zM479 1781.5q0 65.5 45 110.5t110.5 45t111 -45t45.5 -110.5t-45.5 -110.5t-111 -45t-110.5 45 t-45 110.5z" />
<glyph unicode="&#xd0;" horiz-adv-x="1601" d="M143 0v82h164v477h-164v92h164v701h-164v82h553q369 0 596.5 -200t227.5 -516.5t-227.5 -517t-596.5 -200.5h-553zM614 82h82q238 0 372 171t134 464t-134 464t-372 171h-82v-701h308v-92h-308v-477z" />
<glyph unicode="&#xd1;" horiz-adv-x="1576" d="M123 0v82h123v1270h-123v82h479l586 -1153v1071h-123v82h389v-82h-123v-1352h-325l-617 1212v-1130h123v-82h-389zM494 1793q0 71 16 136h74v-31q0 -80 57 -79q25 0 47 14l174 98q66 39 123 39t103.5 -53t46.5 -124t-17 -136h-74v31q0 80 -57 79q-25 0 -47 -14l-174 -98 q-66 -39 -123 -39t-103 53t-46 124z" />
<glyph unicode="&#xd2;" horiz-adv-x="1572" d="M102 714.5q0 325.5 177.5 537.5t506 212t506.5 -211t178 -537.5t-178 -536.5t-506.5 -210t-506 210t-177.5 535.5zM420 715q0 -381 162 -555q86 -94 204 -94q176 0 271.5 188t95.5 461.5t-95.5 463t-271.5 189.5q-121 0 -204 -94q-162 -176 -162 -559zM487 1870 q0 47 34 76.5t74 29.5t67.5 -14t45 -31.5t52.5 -56.5l244 -270l-43 -50l-304 150q-96 47 -133 83t-37 83z" />
<glyph unicode="&#xd3;" horiz-adv-x="1572" d="M102 714.5q0 325.5 177.5 537.5t506 212t506.5 -211t178 -537.5t-178 -536.5t-506.5 -210t-506 210t-177.5 535.5zM420 715q0 -381 162 -555q86 -94 204 -94q176 0 271.5 188t95.5 461.5t-95.5 463t-271.5 189.5q-121 0 -204 -94q-162 -176 -162 -559zM528 1604l244 270 q35 39 52.5 56.5t45 31.5t67.5 14t73.5 -29.5t33.5 -76.5t-36.5 -83t-133.5 -83l-303 -150z" />
<glyph unicode="&#xd4;" horiz-adv-x="1572" d="M102 714.5q0 325.5 177.5 537.5t506 212t506.5 -211t178 -537.5t-178 -536.5t-506.5 -210t-506 210t-177.5 535.5zM420 715q0 -381 162 -555q86 -94 204 -94q176 0 271.5 188t95.5 461.5t-95.5 463t-271.5 189.5q-121 0 -204 -94q-162 -176 -162 -559zM446 1604l222 294 q57 78 118.5 78t118.5 -78l221 -294l-43 -50l-288 195h-17l-289 -195z" />
<glyph unicode="&#xd5;" horiz-adv-x="1572" d="M102 714.5q0 325.5 177.5 537.5t506 212t506.5 -211t178 -537.5t-178 -536.5t-506.5 -210t-506 210t-177.5 535.5zM420 715q0 -381 162 -555q86 -94 204 -94q176 0 271.5 188t95.5 461.5t-95.5 463t-271.5 189.5q-121 0 -204 -94q-162 -176 -162 -559zM465 1793 q0 71 16 136h74v-31q0 -80 57 -79q25 0 47 14l175 98q66 39 123 39t103 -53t46 -124t-16 -136h-74v31q0 80 -58 79q-25 0 -47 -14l-174 -98q-66 -39 -123 -39t-103 53t-46 124z" />
<glyph unicode="&#xd6;" horiz-adv-x="1572" d="M102 714.5q0 325.5 177.5 537.5t506 212t506.5 -211t178 -537.5t-178 -536.5t-506.5 -210t-506 210t-177.5 535.5zM395 1781.5q0 65.5 46 110.5t109.5 45t110 -45t46.5 -110.5t-46.5 -110.5t-110 -45t-109.5 45t-46 110.5zM420 715q0 -381 162 -555q86 -94 204 -94 q176 0 271.5 188t95.5 461.5t-95.5 463t-271.5 189.5q-121 0 -204 -94q-162 -176 -162 -559zM866 1781.5q0 65.5 46 110.5t109.5 45t110 -45t46.5 -110.5t-46.5 -110.5t-110 -45t-109.5 45t-46 110.5z" />
<glyph unicode="&#xd7;" d="M215 444l272 273l-272 272l86 86l272 -272l273 272l86 -86l-273 -272l273 -273l-86 -86l-273 273l-272 -273z" />
<glyph unicode="&#xd8;" horiz-adv-x="1572" d="M102 715q0 326 177.5 537.5t504.5 211.5q68 0 150 -14l39 145h102l-47 -168q215 -72 328.5 -263t113.5 -449q0 -326 -178 -536t-508 -210q-66 0 -147 15l-39 -148h-100l45 170q-213 70 -327 261.5t-114 447.5zM420 713q0 -385 164 -557l319 1185q-58 27 -117 27 q-121 0 -204 -94q-162 -176 -162 -561zM668 92q51 -27 118 -26q176 0 271.5 188.5t95.5 460.5q0 387 -166 563z" />
<glyph unicode="&#xd9;" horiz-adv-x="1433" d="M72 1352v82h553v-82h-123v-922q0 -160 86 -246t212 -86t221 87t95 245v922h-123v82h389v-82h-122v-858q0 -147 -44.5 -254t-121.5 -164q-145 -106 -363 -107q-217 0 -366 109q-80 55 -125 161.5t-45 256.5v856h-123zM459 1870q0 47 33.5 76.5t73.5 29.5t68 -14t45 -31.5 t52 -56.5l244 -270l-43 -50l-303 150q-96 47 -133 83t-37 83z" />
<glyph unicode="&#xda;" horiz-adv-x="1433" d="M72 1352v82h553v-82h-123v-922q0 -160 86 -246t212 -86t221 87t95 245v922h-123v82h389v-82h-122v-858q0 -147 -44.5 -254t-121.5 -164q-145 -106 -363 -107q-217 0 -366 109q-80 55 -125 161.5t-45 256.5v856h-123zM469 1604l244 270q35 39 52 56.5t45 31.5t68 14 t73.5 -29.5t33.5 -76.5t-37 -83t-133 -83l-303 -150z" />
<glyph unicode="&#xdb;" horiz-adv-x="1433" d="M72 1352v82h553v-82h-123v-922q0 -160 86 -246t212 -86t221 87t95 245v922h-123v82h389v-82h-122v-858q0 -147 -44.5 -254t-121.5 -164q-145 -106 -363 -107q-217 0 -366 109q-80 55 -125 161.5t-45 256.5v856h-123zM418 1604l221 294q57 78 118.5 78t119.5 -78l221 -294 l-43 -50l-289 195h-16l-289 -195z" />
<glyph unicode="&#xdc;" horiz-adv-x="1433" d="M72 1352v82h553v-82h-123v-922q0 -160 86 -246t212 -86t221 87t95 245v922h-123v82h389v-82h-122v-858q0 -147 -44.5 -254t-121.5 -164q-145 -106 -363 -107q-217 0 -366 109q-80 55 -125 161.5t-45 256.5v856h-123zM336 1781.5q0 65.5 45 110.5t110.5 45t110.5 -45 t45 -110.5t-45 -110.5t-110.5 -45t-110.5 45t-45 110.5zM807 1781.5q0 65.5 45 110.5t110.5 45t110.5 -45t45 -110.5t-45 -110.5t-110.5 -45t-110.5 45t-45 110.5z" />
<glyph unicode="&#xdd;" horiz-adv-x="1243" d="M10 1352v82h406l323 -803l185 803h309v-82h-96l-349 -840v-430h205v-82h-717v82h205v430l-372 840h-99zM432 1604l244 270q35 39 52 56.5t45 31.5t68 14t73.5 -29.5t33.5 -76.5t-37 -83t-133 -83l-303 -150z" />
<glyph unicode="&#xde;" horiz-adv-x="1378" d="M143 0v82h123v1270h-123v82h553v-82h-123v-185h21q504 0 631 -231q51 -90 51 -219t-50 -219t-147 -140q-180 -92 -485 -92h-21v-184h123v-82h-553zM573 348h21q162 0 268.5 97.5t106.5 271.5t-106.5 271t-268.5 97h-21v-737z" />
<glyph unicode="&#xdf;" horiz-adv-x="1341" d="M80 911v84h168v6q0 221 128 342t347 121t313 -67.5t94 -173.5q0 -74 -45 -138.5t-100 -103.5q-145 -102 -145 -182q0 -96 166 -181q70 -37 139 -77.5t117.5 -105t48.5 -148.5q0 -154 -98.5 -236t-289 -82t-315.5 92l37 64q86 -49 178 -49t136.5 47t44.5 118.5t-32 129 t-77 101.5t-92 89q-109 111 -109 236q0 82 82 212t82 202.5t-35 111.5t-104.5 39t-116.5 -83t-47 -257v-1022h-307v911h-168z" />
<glyph unicode="&#xe0;" horiz-adv-x="1454" d="M133 511q0 237 132 390.5t370 153.5q182 0 280 -146v115h308v-797q0 -55 26.5 -86.5t81.5 -31.5t127 59l37 -49q-164 -150 -328 -150q-195 0 -239 183q-106 -182 -314 -183q-236 0 -358.5 152.5t-122.5 389.5zM424 1460q0 47 34 77t73.5 30t67.5 -14.5t45.5 -32 t51.5 -56.5l244 -270l-43 -49l-303 149q-96 47 -133 83t-37 83zM451 512q0 -197 57 -311.5t175 -114.5t180.5 115.5t62.5 310.5t-62.5 310.5t-180.5 115.5t-175 -114.5t-57 -311.5z" />
<glyph unicode="&#xe1;" horiz-adv-x="1423" d="M102 511q0 237 132.5 390.5t369.5 153.5q182 0 281 -146v115h307v-797q0 -55 26.5 -86.5t82 -31.5t126.5 59l37 -49q-164 -150 -327 -150q-195 0 -240 183q-106 -182 -313 -183q-236 0 -359 152.5t-123 389.5zM420 512q0 -197 57.5 -311.5t175 -114.5t180 115.5 t62.5 310.5t-62.5 310.5t-180 115.5t-175 -114.5t-57.5 -311.5zM530 1194l244 270q35 39 52.5 56.5t45 32t67.5 14.5t74 -30t34 -77t-37 -83t-133 -83l-304 -149z" />
<glyph unicode="&#xe2;" horiz-adv-x="1454" d="M133 511q0 237 132 390.5t370 153.5q182 0 280 -146v115h308v-797q0 -55 26.5 -86.5t81.5 -31.5t127 59l37 -49q-164 -150 -328 -150q-195 0 -239 183q-106 -182 -314 -183q-236 0 -358.5 152.5t-122.5 389.5zM346 1194l221 295q58 78 119.5 78t118.5 -78l221 -295 l-43 -49l-289 194h-16l-289 -194zM451 512q0 -197 57 -311.5t175 -114.5t180.5 115.5t62.5 310.5t-62.5 310.5t-180.5 115.5t-175 -114.5t-57 -311.5z" />
<glyph unicode="&#xe3;" horiz-adv-x="1423" d="M102 511q0 237 132.5 390.5t369.5 153.5q182 0 281 -146v115h307v-797q0 -55 26.5 -86.5t82 -31.5t126.5 59l37 -49q-164 -150 -327 -150q-195 0 -240 183q-106 -182 -313 -183q-236 0 -359 152.5t-123 389.5zM391 1383.5q0 70.5 17 136.5h73v-31q0 -80 58 -80 q25 0 47 14l174 99q66 39 123 39t103 -53.5t46 -124t-16 -136.5h-74v31q0 80 -57 80q-25 0 -47 -15l-174 -98q-66 -39 -123.5 -39t-103.5 53.5t-46 124zM420 512q0 -197 57.5 -311.5t175 -114.5t180 115.5t62.5 310.5t-62.5 310.5t-180 115.5t-175 -114.5t-57.5 -311.5z" />
<glyph unicode="&#xe4;" horiz-adv-x="1423" d="M102 511q0 237 132.5 390.5t369.5 153.5q182 0 281 -146v115h307v-797q0 -55 26.5 -86.5t82 -31.5t126.5 59l37 -49q-164 -150 -327 -150q-195 0 -240 183q-106 -182 -313 -183q-236 0 -359 152.5t-123 389.5zM319 1372.5q0 65.5 45.5 110.5t111 45t110.5 -45t45 -110.5 t-45 -110.5t-110.5 -45t-111 45t-45.5 110.5zM420 512q0 -197 57.5 -311.5t175 -114.5t180 115.5t62.5 310.5t-62.5 310.5t-180 115.5t-175 -114.5t-57.5 -311.5zM791 1372.5q0 65.5 45 110.5t110.5 45t110.5 -45t45 -110.5t-45 -110.5t-110.5 -45t-110.5 45t-45 110.5z" />
<glyph unicode="&#xe5;" horiz-adv-x="1454" d="M133 511q0 237 132 390.5t370 153.5q182 0 280 -146v115h308v-797q0 -55 26.5 -86.5t81.5 -31.5t127 59l37 -49q-164 -150 -328 -150q-195 0 -239 183q-106 -182 -314 -183q-236 0 -358.5 152.5t-122.5 389.5zM442 1371.5q0 107.5 76 174t188.5 66.5t188.5 -66.5t76 -174 t-76 -173t-188.5 -65.5t-188.5 65.5t-76 173zM451 512q0 -197 57 -311.5t175 -114.5t180.5 115.5t62.5 310.5t-62.5 310.5t-180.5 115.5t-175 -114.5t-57 -311.5zM614 1370q0 -170 91.5 -170t91.5 170t-91.5 170t-91.5 -170z" />
<glyph unicode="&#xe6;" horiz-adv-x="1851" d="M113 296q0 146 110.5 237.5t272 91.5t303.5 -64q0 270 -103 334q-45 29 -114 29q-145 0 -326 -109l-41 66q123 98 228.5 136t248.5 38q201 0 305 -101q139 100 334 100.5t297.5 -90t102.5 -227.5t-114 -252.5t-300 -115.5q-113 0 -230 24q18 -135 85 -216t176 -81 q197 0 333 154l58 -37q-70 -111 -184.5 -177.5t-264 -66.5t-264.5 74t-180 197q-39 -119 -134.5 -195t-253 -76t-251.5 90.5t-94 236.5zM410 311.5q0 -94.5 42.5 -150t116.5 -55.5q229 0 230 383q-106 39 -199.5 39t-141.5 -61t-48 -155.5zM1079 463q68 -14 111 -14 q137 0 207.5 91t70.5 192.5t-39.5 156.5t-125.5 55t-155 -112.5t-69 -319.5v-49z" />
<glyph unicode="&#xe7;" horiz-adv-x="1150" d="M133 524q0 217 150.5 374t392.5 157q135 0 264 -78t129 -211q0 -68 -48 -116t-115.5 -48t-116 48t-48.5 109.5t33 104.5t86 60q-57 25 -131 24q-137 0 -207.5 -121.5t-70.5 -309t70.5 -304.5t207.5 -117q184 0 313 154l58 -37q-68 -111 -177.5 -177.5t-244.5 -66.5 q-29 0 -41 2l-64 -129q35 14 84 15q96 0 155.5 -55.5t59.5 -139.5t-70.5 -144.5t-171 -60.5t-165 37t-64.5 105q0 35 25 59.5t58.5 24.5t59 -26t25.5 -64.5t-37 -65.5q16 -4 31 -4q59 0 95 37t36 87t-39 89t-110 39l-45 35l78 167q-203 31 -324 180.5t-121 366.5z" />
<glyph unicode="&#xe8;" horiz-adv-x="1222" d="M133 518q0 227 154.5 382t429.5 155q180 0 282.5 -84t102.5 -213t-114 -238.5t-300 -109.5q-63 0 -123 14l-4 49q133 12 206 101.5t73 180.5t-40 140t-121 49t-154.5 -114.5t-73.5 -307t69.5 -309.5t198.5 -117q197 0 334 154l57 -37q-70 -111 -184.5 -177.5 t-257.5 -66.5q-244 0 -389.5 161t-145.5 388zM393 1460q0 47 34 77t74 30t67.5 -14.5t45 -32t52.5 -56.5l243 -270l-43 -49l-303 149q-96 47 -133 83t-37 83z" />
<glyph unicode="&#xe9;" horiz-adv-x="1222" d="M133 518q0 227 154.5 382t429.5 155q180 0 282.5 -84t102.5 -213t-114 -238.5t-300 -109.5q-63 0 -123 14l-4 49q133 12 206 101.5t73 180.5t-40 140t-121 49t-154.5 -114.5t-73.5 -307t69.5 -309.5t198.5 -117q197 0 334 154l57 -37q-70 -111 -184.5 -177.5 t-257.5 -66.5q-244 0 -389.5 161t-145.5 388zM430 1194l244 270q35 39 52 56.5t45 32t68 14.5t73.5 -30t33.5 -77t-37 -83t-133 -83l-303 -149z" />
<glyph unicode="&#xea;" horiz-adv-x="1222" d="M133 518q0 227 154.5 382t429.5 155q180 0 282.5 -84t102.5 -213t-114 -238.5t-300 -109.5q-63 0 -123 14l-4 49q133 12 206 101.5t73 180.5t-40 140t-121 49t-154.5 -114.5t-73.5 -307t69.5 -309.5t198.5 -117q197 0 334 154l57 -37q-70 -111 -184.5 -177.5 t-257.5 -66.5q-244 0 -389.5 161t-145.5 388zM291 1194l221 295q57 78 118.5 78t119.5 -78l221 -295l-43 -49l-289 194h-16l-289 -194z" />
<glyph unicode="&#xeb;" horiz-adv-x="1222" d="M133 518q0 227 154.5 382t429.5 155q180 0 282.5 -84t102.5 -213t-114 -238.5t-300 -109.5q-63 0 -123 14l-4 49q133 12 206 101.5t73 180.5t-40 140t-121 49t-154.5 -114.5t-73.5 -307t69.5 -309.5t198.5 -117q197 0 334 154l57 -37q-70 -111 -184.5 -177.5 t-257.5 -66.5q-244 0 -389.5 161t-145.5 388zM219 1372.5q0 65.5 46 110.5t109.5 45t109.5 -45t46 -110.5t-46 -110.5t-109.5 -45t-109.5 45t-46 110.5zM690 1372.5q0 65.5 46 110.5t109.5 45t109.5 -45t46 -110.5t-46 -110.5t-109.5 -45t-109.5 45t-46 110.5z" />
<glyph unicode="&#xec;" horiz-adv-x="817" d="M51 920q59 61 150.5 98t191.5 37q193 0 193 -166v-662q0 -55 26.5 -86.5t82 -31.5t126.5 59l37 -49q-164 -150 -328 -150q-252 0 -251 301v686q-113 -29 -173 -100zM150 1460q0 47 33.5 77t73.5 30t67.5 -14.5t45 -32t52.5 -56.5l244 -270l-43 -49l-304 149 q-96 47 -132.5 83t-36.5 83z" />
<glyph unicode="&#xed;" horiz-adv-x="817" d="M51 920q59 61 150.5 98t191.5 37q193 0 193 -166v-662q0 -55 26.5 -86.5t82 -31.5t126.5 59l37 -49q-164 -150 -328 -150q-252 0 -251 301v686q-113 -29 -173 -100zM152 1194l243 270q35 39 52.5 56.5t45 32t67.5 14.5t74 -30t34 -77t-37 -83t-133 -83l-303 -149z" />
<glyph unicode="&#xee;" horiz-adv-x="817" d="M51 920q59 61 150.5 98t191.5 37q193 0 193 -166v-662q0 -55 26.5 -86.5t82 -31.5t126.5 59l37 -49q-164 -150 -328 -150q-252 0 -251 301v686q-113 -29 -173 -100zM68 1194l221 295q57 78 118.5 78t118.5 -78l222 -295l-43 -49l-289 194h-17l-288 -194z" />
<glyph unicode="&#xef;" horiz-adv-x="817" d="M18 1372.5q0 65.5 46.5 110.5t110 45t109.5 -45t46 -110.5t-46 -110.5t-109.5 -45t-110 45t-46.5 110.5zM51 920q59 61 150.5 98t191.5 37q193 0 193 -166v-662q0 -55 26.5 -86.5t82 -31.5t126.5 59l37 -49q-164 -150 -328 -150q-252 0 -251 301v686q-113 -29 -173 -100z M489 1372.5q0 65.5 46.5 110.5t110 45t109.5 -45t46 -110.5t-46 -110.5t-109.5 -45t-110 45t-46.5 110.5z" />
<glyph unicode="&#xf0;" horiz-adv-x="1378" d="M143 491.5q0 227.5 138.5 364.5t353.5 137q176 0 262 -119l21 9q-33 229 -103 366l-254 -129l-39 78l246 125q-90 121 -215 121q-156 0 -281 -119l-51 152q160 90 334 90q223 0 385 -156l246 125l39 -78l-226 -115q209 -270 209 -743q0 -301 -143 -466t-388 -165 t-389.5 147.5t-144.5 375zM440 478.5q0 -185.5 57.5 -304.5t175.5 -119t180 119t62 304.5t-62 302t-180 116.5t-175.5 -116.5t-57.5 -302z" />
<glyph unicode="&#xf1;" horiz-adv-x="1447" d="M61 987q89 37 193 37q168 0 303 -102q78 74 160 103.5t210 29.5t209 -81t81 -220v-527q0 -55 26.5 -86.5t81.5 -31.5t127 59l37 -49q-164 -150 -328 -150q-252 0 -252 301v527q0 63 -39 98t-107.5 35t-135 -55.5t-66.5 -143.5v-731h-307v942q-92 0 -164 -31zM403 1383.5 q0 70.5 17 136.5h74v-31q0 -80 57 -80q25 0 47 14l174 99q66 39 123 39t103 -53.5t46 -124t-16 -136.5h-74v31q0 80 -57 80q-25 0 -47 -15l-174 -98q-66 -39 -123 -39t-103.5 53.5t-46.5 124z" />
<glyph unicode="&#xf2;" horiz-adv-x="1351" d="M133 512q0 229 150.5 386t392.5 157t392.5 -157t150.5 -386t-150.5 -386t-392.5 -157t-392.5 157t-150.5 386zM418 1460q0 47 33.5 77t73.5 30t68 -14.5t45 -32t52 -56.5l244 -270l-43 -49l-303 149q-96 47 -133 83t-37 83zM451 512q0 -201 57 -329t170 -128t170 128 t57 329t-57 329t-170 128t-170 -128t-57 -329z" />
<glyph unicode="&#xf3;" horiz-adv-x="1351" d="M133 512q0 229 150.5 386t392.5 157t392.5 -157t150.5 -386t-150.5 -386t-392.5 -157t-392.5 157t-150.5 386zM451 512q0 -201 57 -329t170 -128t170 128t57 329t-57 329t-170 128t-170 -128t-57 -329zM496 1194l243 270q35 39 52.5 56.5t45 32t67.5 14.5t74 -30t34 -77 t-37 -83t-133 -83l-303 -149z" />
<glyph unicode="&#xf4;" horiz-adv-x="1351" d="M133 512q0 229 150.5 386t392.5 157t392.5 -157t150.5 -386t-150.5 -386t-392.5 -157t-392.5 157t-150.5 386zM336 1194l221 295q57 78 118.5 78t119.5 -78l221 -295l-43 -49l-289 194h-16l-289 -194zM451 512q0 -201 57 -329t170 -128t170 128t57 329t-57 329t-170 128 t-170 -128t-57 -329z" />
<glyph unicode="&#xf5;" horiz-adv-x="1351" d="M133 512q0 229 150.5 386t392.5 157t392.5 -157t150.5 -386t-150.5 -386t-392.5 -157t-392.5 157t-150.5 386zM354 1383.5q0 70.5 17 136.5h73v-31q0 -80 58 -80q25 0 47 14l174 99q66 39 123 39t103 -53.5t46 -124t-16 -136.5h-74v31q0 80 -57 80q-25 0 -47 -15 l-174 -98q-66 -39 -123.5 -39t-103.5 53.5t-46 124zM451 512q0 -201 57 -329t170 -128t170 128t57 329t-57 329t-170 128t-170 -128t-57 -329z" />
<glyph unicode="&#xf6;" horiz-adv-x="1351" d="M133 512q0 229 150.5 386t392.5 157t392.5 -157t150.5 -386t-150.5 -386t-392.5 -157t-392.5 157t-150.5 386zM285 1372.5q0 65.5 46 110.5t109.5 45t109.5 -45t46 -110.5t-46 -110.5t-109.5 -45t-109.5 45t-46 110.5zM451 512q0 -201 57 -329t170 -128t170 128t57 329 t-57 329t-170 128t-170 -128t-57 -329zM756 1372.5q0 65.5 46 110.5t109.5 45t109.5 -45t46 -110.5t-46 -110.5t-109.5 -45t-109.5 45t-46 110.5z" />
<glyph unicode="&#xf7;" d="M184 655v123h779v-123h-779zM446 366.5q0 53.5 37 89.5t90.5 36t89 -37t35.5 -89.5t-35.5 -89t-89 -36.5t-90.5 36.5t-37 90zM446 1069q0 53 37 89t90.5 36t89 -36t35.5 -89t-35.5 -90t-89 -37t-90.5 37t-37 90z" />
<glyph unicode="&#xf8;" horiz-adv-x="1351" d="M133 512q0 229 150.5 386t392.5 157q33 0 94 -8l92 342h103l-101 -365q164 -55 259.5 -194.5t95.5 -317.5q0 -229 -150.5 -386t-392.5 -157q-33 0 -94 8l-95 -348h-100l98 371q-164 53 -258 192.5t-94 319.5zM451 489.5q0 -223.5 75 -342.5l217 807q-35 14 -65 15 q-113 0 -170 -128t-57 -351.5zM606 72q37 -16 72 -17q113 0 170 128t57 352.5t-80 345.5z" />
<glyph unicode="&#xf9;" horiz-adv-x="1447" d="M27 920q59 61 150 98t180 37t146.5 -36t57.5 -89v-703q0 -63 39 -98t108.5 -35t135 57.5t65.5 149.5v723h308v-797q0 -55 26.5 -86.5t81.5 -31.5t127 59l37 -49q-164 -150 -334 -150t-225 152q-80 -84 -165 -118t-217 -34t-213 81t-81 220v686q-113 -29 -172 -100z M424 1460q0 47 34 77t73.5 30t67.5 -14.5t45.5 -32t51.5 -56.5l244 -270l-43 -49l-303 149q-96 47 -133 83t-37 83z" />
<glyph unicode="&#xfa;" horiz-adv-x="1447" d="M27 920q59 61 150 98t180 37t146.5 -36t57.5 -89v-703q0 -63 39 -98t108.5 -35t135 57.5t65.5 149.5v723h308v-797q0 -55 26.5 -86.5t81.5 -31.5t127 59l37 -49q-164 -150 -334 -150t-225 152q-80 -84 -165 -118t-217 -34t-213 81t-81 220v686q-113 -29 -172 -100z M543 1194l243 270q35 39 52.5 56.5t45 32t67.5 14.5t74 -30t34 -77t-37 -83t-133 -83l-303 -149z" />
<glyph unicode="&#xfb;" horiz-adv-x="1447" d="M27 920q59 61 150 98t180 37t146.5 -36t57.5 -89v-703q0 -63 39 -98t108.5 -35t135 57.5t65.5 149.5v723h308v-797q0 -55 26.5 -86.5t81.5 -31.5t127 59l37 -49q-164 -150 -334 -150t-225 152q-80 -84 -165 -118t-217 -34t-213 81t-81 220v686q-113 -29 -172 -100z M383 1194l221 295q58 78 119 78t119 -78l221 -295l-43 -49l-289 194h-16l-289 -194z" />
<glyph unicode="&#xfc;" horiz-adv-x="1447" d="M27 920q59 61 150 98t180 37t146.5 -36t57.5 -89v-703q0 -63 39 -98t108.5 -35t135 57.5t65.5 149.5v723h308v-797q0 -55 26.5 -86.5t81.5 -31.5t127 59l37 -49q-164 -150 -334 -150t-225 152q-80 -84 -165 -118t-217 -34t-213 81t-81 220v686q-113 -29 -172 -100z M332 1372.5q0 65.5 45 110.5t110.5 45t110.5 -45t45 -110.5t-45 -110.5t-110.5 -45t-110.5 45t-45 110.5zM803 1372.5q0 65.5 45 110.5t110.5 45t110.5 -45t45 -110.5t-45 -110.5t-110.5 -45t-110.5 45t-45 110.5z" />
<glyph unicode="&#xfd;" horiz-adv-x="1284" d="M27 920q59 61 150 98t180 37t146.5 -36t57.5 -89v-621q0 -66 41 -99.5t103 -33.5q131 0 224 112.5t93 289.5q0 98 -39 206q-37 -25 -94.5 -24.5t-103.5 46.5t-46 111.5t46 111.5t116 46t120 -52t73 -138q37 -150 36.5 -331t-42 -363.5t-110.5 -313.5t-155 -227 q-176 -193 -358 -193q-49 0 -81 21.5t-73 79.5l-106 147l53 55q98 -16 172 -16q229 0 374.5 145.5t229.5 472.5q-127 -352 -467 -352q-131 0 -222 89t-91 253v604q-113 -29 -172 -100zM422 1194l244 270q35 39 52 56.5t45 32t67.5 14.5t73.5 -30t34 -77t-37 -83t-133 -83 l-303 -149z" />
<glyph unicode="&#xfe;" horiz-adv-x="1452" d="M0 1432q59 61 150.5 98t180.5 37t146.5 -36t57.5 -89l2 -549q108 162 301 162q236 0 358.5 -152.5t122.5 -389.5t-132 -390.5t-370 -153.5q-176 0 -280 158v-639h-310v1982q-115 -31 -172 -102zM526 512q0 -195 62.5 -310.5t180.5 -115.5t175 114.5t57 311.5t-57 311.5 t-175 114.5t-180.5 -115.5t-62.5 -310.5z" />
<glyph unicode="&#xff;" horiz-adv-x="1284" d="M27 920q59 61 150 98t180 37t146.5 -36t57.5 -89v-621q0 -66 41 -99.5t103 -33.5q131 0 224 112.5t93 289.5q0 98 -39 206q-37 -25 -94.5 -24.5t-103.5 46.5t-46 111.5t46 111.5t116 46t120 -52t73 -138q37 -150 36.5 -331t-42 -363.5t-110.5 -313.5t-155 -227 q-176 -193 -358 -193q-49 0 -81 21.5t-73 79.5l-106 147l53 55q98 -16 172 -16q229 0 374.5 145.5t229.5 472.5q-127 -352 -467 -352q-131 0 -222 89t-91 253v604q-113 -29 -172 -100zM248 1372.5q0 65.5 46 110.5t109.5 45t109.5 -45t46 -110.5t-46 -110.5t-109.5 -45 t-109.5 45t-46 110.5zM719 1372.5q0 65.5 46 110.5t109.5 45t109.5 -45t46 -110.5t-46 -110.5t-109.5 -45t-109.5 45t-46 110.5z" />
<glyph unicode="&#x152;" horiz-adv-x="1992" d="M102 715.5q0 312.5 192.5 515.5t551.5 203h878q45 0 66.5 -3.5t40 -22.5t18.5 -60l-55 -344h-80l-41 202q-18 92 -68.5 119t-185.5 27h-143v-701h471v-92h-471v-477h184q133 0 183.5 26.5t70.5 118.5l41 183h80l55 -324q0 -41 -18.5 -60.5t-40 -22.5t-66.5 -3h-919 q-358 0 -551 201.5t-193 514zM420 715q0 -375 186 -543q99 -90 240 -90h123v1270h-123q-209 0 -317.5 -181.5t-108.5 -455.5z" />
<glyph unicode="&#x153;" horiz-adv-x="1994" d="M133 512q0 229 150.5 386t389 157t390.5 -152q158 152 426 152q180 0 282.5 -84t102.5 -213t-113.5 -238.5t-300.5 -109.5q-63 0 -123 14l-4 49q133 12 206 101.5t73 180.5t-40 140t-123 49t-162 -114.5t-79 -308t75 -309.5t208 -116q197 0 334 154l57 -37 q-70 -111 -184.5 -177.5t-257.5 -66.5q-229 0 -379 150q-150 -150 -388.5 -150t-389 157t-150.5 386zM451 512q0 -201 57 -329t172 -128t175 125t60 332t-60 332t-175 125t-172 -128t-57 -329z" />
<glyph unicode="&#x178;" horiz-adv-x="1339" d="M29 1352v82h409l295 -772l260 772h310v-82h-97l-415 -846v-424h204v-82h-716v82h204v430l-352 840h-102zM299 1781.5q0 65.5 45 110.5t110.5 45t110.5 -45t45 -110.5t-45 -110.5t-110.5 -45t-110.5 45t-45 110.5zM770 1781.5q0 65.5 45 110.5t110.5 45t110.5 -45 t45 -110.5t-45 -110.5t-110.5 -45t-110.5 45t-45 110.5z" />
<glyph unicode="&#x2c6;" horiz-adv-x="802" d="M61 1194l222 295q57 78 118.5 78t118.5 -78l221 -295l-43 -49l-288 194h-17l-289 -194z" />
<glyph unicode="&#x2dc;" horiz-adv-x="915" d="M137 1383.5q0 70.5 17 136.5h73v-31q0 -80 58 -80q25 0 47 14l174 99q66 39 123 39t103 -53.5t46 -124t-16 -136.5h-74v31q0 80 -57 80q-25 0 -47 -15l-174 -98q-66 -39 -123.5 -39t-103.5 53.5t-46 124z" />
<glyph unicode="&#x2000;" horiz-adv-x="1010" />
<glyph unicode="&#x2001;" horiz-adv-x="2021" />
<glyph unicode="&#x2002;" horiz-adv-x="1010" />
<glyph unicode="&#x2003;" horiz-adv-x="2021" />
<glyph unicode="&#x2004;" horiz-adv-x="673" />
<glyph unicode="&#x2005;" horiz-adv-x="505" />
<glyph unicode="&#x2006;" horiz-adv-x="336" />
<glyph unicode="&#x2007;" horiz-adv-x="336" />
<glyph unicode="&#x2008;" horiz-adv-x="252" />
<glyph unicode="&#x2009;" horiz-adv-x="404" />
<glyph unicode="&#x200a;" horiz-adv-x="112" />
<glyph unicode="&#x2010;" horiz-adv-x="819" d="M102 516v123h615v-123h-615z" />
<glyph unicode="&#x2011;" horiz-adv-x="819" d="M102 516v123h615v-123h-615z" />
<glyph unicode="&#x2012;" horiz-adv-x="819" d="M102 516v123h615v-123h-615z" />
<glyph unicode="&#x2013;" horiz-adv-x="1024" d="M0 645v123h1024v-123h-1024z" />
<glyph unicode="&#x2014;" horiz-adv-x="2048" d="M0 645v123h2048v-123h-2048z" />
<glyph unicode="&#x2018;" horiz-adv-x="561" d="M123 1126q0 229 246 441l55 -51q-90 -104 -90 -181.5t52 -121.5t52 -114.5t-46 -116.5t-112.5 -46t-111.5 51t-45 139z" />
<glyph unicode="&#x2019;" horiz-adv-x="561" d="M123 1404q0 71 46 117t112.5 46t111.5 -51.5t45 -139.5q0 -229 -245 -440l-56 51q90 104 90 181t-52 121t-52 115z" />
<glyph unicode="&#x201a;" horiz-adv-x="561" d="M123 122q0 71 46 117t112.5 46t111.5 -51.5t45 -139.5q0 -229 -245 -440l-56 51q90 104 90 181t-52 121t-52 115z" />
<glyph unicode="&#x201c;" horiz-adv-x="1011" d="M123 1126q0 229 246 441l55 -51q-90 -104 -90 -181.5t52 -121.5t52 -114.5t-46 -116.5t-112.5 -46t-111.5 51t-45 139zM573 1126q0 229 246 441l55 -51q-90 -104 -90 -181.5t52.5 -121.5t52.5 -114.5t-46 -116.5t-112.5 -46t-112 51t-45.5 139z" />
<glyph unicode="&#x201d;" horiz-adv-x="1011" d="M123 1404q0 71 46 117t112.5 46t111.5 -51.5t45 -139.5q0 -229 -245 -440l-56 51q90 104 90 181t-52 121t-52 115zM573 1404q0 71 46.5 117t113 46t111.5 -51.5t45 -139.5q0 -229 -246 -440l-55 51q90 104 90 181t-52.5 121t-52.5 115z" />
<glyph unicode="&#x201e;" horiz-adv-x="1011" d="M123 122q0 71 46 117t112.5 46t111.5 -51.5t45 -139.5q0 -229 -245 -440l-56 51q90 104 90 181t-52 121t-52 115zM573 122q0 71 46.5 117t113 46t111.5 -51.5t45 -139.5q0 -229 -246 -440l-55 51q90 104 90 181t-52.5 121t-52.5 115z" />
<glyph unicode="&#x2022;" horiz-adv-x="610" d="M123 747.5q0 75.5 53 129t129 53.5t129 -53.5t53 -129t-53 -129t-129 -53.5t-129 53.5t-53 129z" />
<glyph unicode="&#x2026;" horiz-adv-x="1683" d="M123 127q0 66 46 112t111.5 46t111.5 -46t46 -112t-46 -112t-111.5 -46t-111.5 46t-46 112zM684 127q0 66 46 112t111.5 46t111.5 -46t46 -112t-46 -112t-111.5 -46t-111.5 46t-46 112zM1245 127q0 66 46 112t111.5 46t112 -46t46.5 -112t-46.5 -112t-112 -46t-111.5 46 t-46 112z" />
<glyph unicode="&#x202f;" horiz-adv-x="404" />
<glyph unicode="&#x2039;" horiz-adv-x="585" d="M61 598q0 66 58 119l295 282l49 -43l-195 -350v-16l195 -350l-49 -43l-295 282q-58 53 -58 119z" />
<glyph unicode="&#x203a;" horiz-adv-x="585" d="M123 240l194 350v16l-194 350l49 43l295 -282q57 -53 57 -119t-57 -119l-295 -282z" />
<glyph unicode="&#x205f;" horiz-adv-x="505" />
<glyph unicode="&#x20ac;" horiz-adv-x="1331" d="M72 489v93h131q-8 57 -8 133v61h-123v92h133q35 268 195.5 432t433.5 164q160 0 286.5 -84t126.5 -204q0 -68 -47 -116t-114.5 -48t-116.5 49t-49 111.5t34.5 106.5t89.5 56q-69 33 -149 33q-338 0 -379 -500h416v-92h-420v-51q0 -98 4 -143h416v-93h-404 q61 -385 320 -385q125 0 205 52.5t145 138.5l72 -51q-88 -129 -194.5 -202t-276.5 -73q-225 0 -377 143.5t-203 376.5h-147z" />
<glyph unicode="&#x2122;" horiz-adv-x="2041" d="M96 1368q0 31 13.5 46.5t27.5 17.5t45 2h563q31 0 46.5 -2t29 -17.5t13.5 -46.5l-35 -213h-70l-24 129q-8 49 -36 62.5t-102 13.5v-725h121v-72h-446v72h120v725q-76 0 -101 -13.5t-36 -62.5l-26 -129h-70zM850 563v72h76l39 725h-80v74h289l210 -691l197 691h328v-74 h-70v-725h74v-72h-350v72h69l-33 516l-167 -588h-203l-180 588l-29 -516h70v-72h-240z" />
<glyph unicode="&#x25fc;" horiz-adv-x="1054" d="M0 0v1055h1055v-1055h-1055z" />
</font>
</defs>
</svg>
